# Blender 3.3.1
# www.blender.org
mtllib DropPod_col.mtl
o Cube.001
v 0.000000 -5.745988 -5.900000
v 0.000000 -3.978715 -5.900000
v 5.109550 -5.745988 -2.950000
v 5.109550 -3.978715 -2.950000
v 5.109550 -5.745988 2.950000
v 5.109550 -3.978715 2.950000
v 0.000000 -5.745988 5.900000
v 0.000000 -3.978715 5.900000
v -5.109550 -5.745988 2.950000
v -5.109550 -3.978715 2.950000
v -5.109550 -5.745988 -2.950000
v -5.109550 -3.978715 -2.950000
v -0.000000 -4.829516 0.000000
vn 0.5000 -0.0000 -0.8660
vn 1.0000 -0.0000 -0.0000
vn 0.5000 -0.0000 0.8660
vn -0.5000 -0.0000 0.8660
vn -1.0000 -0.0000 -0.0000
vn -0.5000 -0.0000 -0.8660
vn -0.0000 -1.0000 -0.0000
vn -0.0821 0.9864 0.1422
vn 0.0821 0.9864 0.1422
vn 0.1643 0.9864 -0.0000
vn 0.0821 0.9864 -0.1422
vn -0.0821 0.9864 -0.1422
vn -0.1643 0.9864 -0.0000
vt 1.000000 0.500000
vt -0.000000 0.500000
vt 0.750000 0.490000
vt 1.000000 1.000000
vt -0.000000 1.000000
vt 0.250000 0.490000
vt 0.833333 0.500000
vt 0.957846 0.370000
vt 0.833333 1.000000
vt 0.457846 0.370000
vt 0.666667 0.500000
vt 0.957846 0.130000
vt 0.666667 1.000000
vt 0.457846 0.130000
vt 0.500000 0.500000
vt 0.750000 0.010000
vt 0.500000 1.000000
vt 0.250000 0.010000
vt 0.333333 0.500000
vt 0.542154 0.130000
vt 0.333333 1.000000
vt 0.042154 0.130000
vt 0.166667 0.500000
vt 0.542154 0.370000
vt 0.166667 1.000000
vt 0.042154 0.370000
vt 0.250000 0.250000
s 0
f 1/1/1 2/4/1 4/9/1 3/7/1
f 3/7/2 4/9/2 6/13/2 5/11/2
f 5/11/3 6/13/3 8/17/3 7/15/3
f 7/15/4 8/17/4 10/21/4 9/19/4
f 9/19/5 10/21/5 12/25/5 11/23/5
f 11/23/6 12/25/6 2/5/6 1/2/6
f 1/3/7 3/8/7 5/12/7 7/16/7 9/20/7 11/24/7
f 4/10/8 2/6/8 13/27/8
f 2/6/9 12/26/9 13/27/9
f 12/26/10 10/22/10 13/27/10
f 10/22/11 8/18/11 13/27/11
f 8/18/12 6/14/12 13/27/12
f 6/14/13 4/10/13 13/27/13
