# Blender 4.5.6 LTS
# www.blender.org
mtllib kin_orbitalcannon_gun_col.mtl
o Cube.004
v -3.500000 -3.500000 3.500000
v -3.500000 3.500000 3.500000
v -3.500000 -3.500000 -9.500000
v 3.500000 -3.500000 3.500000
v 3.500000 3.500000 3.500000
v 3.500000 -3.500000 -9.500000
v -3.500000 -3.500000 -6.250000
v -3.500000 3.500000 -6.250000
v 3.500000 -3.500000 -6.250000
v 3.500000 3.500000 -6.250000
v -3.500000 0.000000 3.500000
v -3.500000 0.000000 -9.500000
v 3.500000 0.000000 -9.500000
v 3.500000 0.000000 3.500000
v 3.500000 0.000000 -6.250000
v -3.500000 0.000000 -6.250000
vn -1.0000 -0.0000 -0.0000
vn 1.0000 -0.0000 -0.0000
vn -0.0000 -0.0000 1.0000
vn -0.0000 -1.0000 -0.0000
vn -0.0000 -0.0000 -1.0000
vn -0.0000 0.6805 -0.7328
vn -0.0000 1.0000 -0.0000
vt 0.390207 0.342426
vt 0.390207 0.256819
vt 0.482400 0.256819
vt 0.574593 0.256819
vt 0.482400 0.000000
vt 0.574593 0.000000
vt 0.758980 0.256819
vt 0.851173 0.256819
vt 0.851173 0.441205
vt 0.758980 0.441205
vt 0.574593 0.342426
vt 0.390207 0.000000
vt 0.482400 -0.000000
vt 0.298013 0.000000
vt 0.298014 0.256819
vt 0.666786 0.342426
vt 0.666786 0.256819
vt 0.666786 0.256819
vt 0.666786 0.441205
vt 0.666786 0.000000
vt 0.298014 0.342426
s 0
f 12/1/1 16/2/1 8/3/1
f 15/4/2 10/3/2 5/5/2 14/6/2
f 14/7/3 5/8/3 2/9/3 11/10/3
f 13/11/2 10/3/2 15/4/2
f 11/12/1 2/13/1 8/3/1 16/2/1
f 1/14/1 11/12/1 16/2/1 7/15/1
f 6/16/2 13/11/2 15/4/2 9/17/2
f 4/18/3 14/7/3 11/10/3 1/19/3
f 9/17/2 15/4/2 14/6/2 4/20/2
f 7/15/1 16/2/1 12/1/1 3/21/1
f 9/17/4 4/18/4 1/14/4 7/15/4
f 7/15/4 3/21/4 6/16/4 9/17/4
f 13/11/5 6/16/5 3/21/5 12/1/5
f 12/1/6 8/3/6 10/3/6 13/11/6
f 10/3/7 8/3/7 2/13/7 5/8/7
o Cube.001
v 0.000000 2.000000 -5.500000
v 0.196034 1.990370 -5.500000
v 0.390181 1.961571 -5.500000
v 0.580569 1.913881 -5.500000
v 0.765367 1.847759 -5.500000
v 0.942793 1.763842 -5.500000
v 1.111140 1.662939 -5.500000
v 1.268787 1.546021 -5.500000
v 1.414214 1.414213 -5.500000
v 1.546021 1.268788 -5.500000
v 1.662939 1.111141 -5.500000
v 1.763842 0.942793 -5.500000
v 1.847759 0.765368 -5.500000
v 1.913881 0.580570 -5.500000
v 1.961571 0.390181 -5.500000
v 1.990369 0.196034 -5.500000
v 2.000000 0.000000 -5.500000
v 1.990369 -0.196033 -5.500000
v 1.961571 -0.390180 -5.500000
v 1.913881 -0.580569 -5.500000
v 1.847759 -0.765366 -5.500000
v 1.763842 -0.942794 -5.500000
v 1.662939 -1.111140 -5.500000
v 1.546021 -1.268786 -5.500000
v 1.414214 -1.414213 -5.500000
v 1.268787 -1.546020 -5.500000
v 1.111140 -1.662939 -5.500000
v 0.942793 -1.763842 -5.500000
v 0.765367 -1.847759 -5.500000
v 0.580569 -1.913880 -5.500000
v 0.390181 -1.961571 -5.500000
v 0.196034 -1.990370 -5.500000
v 0.000000 -2.000000 -5.500000
v -0.196034 -1.990370 -5.500000
v -0.390181 -1.961571 -5.500000
v -0.580569 -1.913880 -5.500000
v -0.765367 -1.847759 -5.500000
v -0.942793 -1.763842 -5.500000
v -1.111140 -1.662939 -5.500000
v -1.268787 -1.546020 -5.500000
v -1.414214 -1.414213 -5.500000
v -1.546021 -1.268786 -5.500000
v -1.662939 -1.111140 -5.500000
v -1.763842 -0.942794 -5.500000
v -1.847759 -0.765366 -5.500000
v -1.913881 -0.580569 -5.500000
v -1.961571 -0.390180 -5.500000
v -1.990369 -0.196033 -5.500000
v -2.000000 0.000000 -5.500000
v -1.990369 0.196034 -5.500000
v -1.961571 0.390181 -5.500000
v -1.913881 0.580570 -5.500000
v -1.847759 0.765368 -5.500000
v -1.763842 0.942793 -5.500000
v -1.662939 1.111141 -5.500000
v -1.546021 1.268788 -5.500000
v -1.414214 1.414213 -5.500000
v -1.268787 1.546021 -5.500000
v -1.111140 1.662939 -5.500000
v -0.942793 1.763842 -5.500000
v -0.765367 1.847759 -5.500000
v -0.580569 1.913881 -5.500000
v -0.390181 1.961571 -5.500000
v -0.196034 1.990370 -5.500000
v 0.000000 2.000000 -21.500000
v 0.196034 1.990370 -21.500000
v 0.390181 1.961571 -21.500000
v 0.580569 1.913881 -21.500000
v 0.765367 1.847759 -21.500000
v 0.942793 1.763842 -21.500000
v 1.111140 1.662939 -21.500000
v 1.268787 1.546021 -21.500000
v 1.414214 1.414213 -21.500000
v 1.546021 1.268788 -21.500000
v 1.662939 1.111141 -21.500000
v 1.763842 0.942793 -21.500000
v 1.847759 0.765368 -21.500000
v 1.913881 0.580570 -21.500000
v 1.961571 0.390181 -21.500000
v 1.990369 0.196034 -21.500000
v 2.000000 0.000000 -21.500000
v 1.990369 -0.196033 -21.500000
v 1.961571 -0.390180 -21.500000
v 1.913881 -0.580569 -21.500000
v 1.847759 -0.765366 -21.500000
v 1.763842 -0.942794 -21.500000
v 1.662939 -1.111140 -21.500000
v 1.546021 -1.268786 -21.500000
v 1.414214 -1.414213 -21.500000
v 1.268787 -1.546020 -21.500000
v 1.111140 -1.662939 -21.500000
v 0.942793 -1.763842 -21.500000
v 0.765367 -1.847759 -21.500000
v 0.580569 -1.913880 -21.500000
v 0.390181 -1.961571 -21.500000
v 0.196034 -1.990370 -21.500000
v 0.000000 -2.000000 -21.500000
v -0.196034 -1.990370 -21.500000
v -0.390181 -1.961571 -21.500000
v -0.580569 -1.913880 -21.500000
v -0.765367 -1.847759 -21.500000
v -0.942793 -1.763842 -21.500000
v -1.111140 -1.662939 -21.500000
v -1.268787 -1.546020 -21.500000
v -1.414214 -1.414213 -21.500000
v -1.546021 -1.268786 -21.500000
v -1.662939 -1.111140 -21.500000
v -1.763842 -0.942794 -21.500000
v -1.847759 -0.765366 -21.500000
v -1.913881 -0.580569 -21.500000
v -1.961571 -0.390180 -21.500000
v -1.990369 -0.196033 -21.500000
v -2.000000 0.000000 -21.500000
v -1.990369 0.196034 -21.500000
v -1.961571 0.390181 -21.500000
v -1.913881 0.580570 -21.500000
v -1.847759 0.765368 -21.500000
v -1.763842 0.942793 -21.500000
v -1.662939 1.111141 -21.500000
v -1.546021 1.268788 -21.500000
v -1.414214 1.414213 -21.500000
v -1.268787 1.546021 -21.500000
v -1.111140 1.662939 -21.500000
v -0.942793 1.763842 -21.500000
v -0.765367 1.847759 -21.500000
v -0.580569 1.913881 -21.500000
v -0.390181 1.961571 -21.500000
v -0.196034 1.990370 -21.500000
v 0.000000 1.499397 -41.500000
v 0.146967 1.492176 -41.500000
v 0.292518 1.470587 -41.500000
v 0.435252 1.434834 -41.500000
v 0.573794 1.385262 -41.500000
v 0.706811 1.322350 -41.500000
v 0.833020 1.246702 -41.500000
v 0.951207 1.159050 -41.500000
v 1.060234 1.060234 -41.500000
v 1.159050 0.951208 -41.500000
v 1.246703 0.833021 -41.500000
v 1.322350 0.706810 -41.500000
v 1.385262 0.573794 -41.500000
v 1.434834 0.435251 -41.500000
v 1.470586 0.292519 -41.500000
v 1.492177 0.146967 -41.500000
v 1.499397 0.000000 -41.500000
v 1.492177 -0.146967 -41.500000
v 1.470586 -0.292518 -41.500000
v 1.434834 -0.435251 -41.500000
v 1.385262 -0.573794 -41.500000
v 1.322350 -0.706811 -41.500000
v 1.246703 -0.833020 -41.500000
v 1.159050 -0.951207 -41.500000
v 1.060234 -1.060234 -41.500000
v 0.951207 -1.159050 -41.500000
v 0.833020 -1.246703 -41.500000
v 0.706811 -1.322349 -41.500000
v 0.573794 -1.385262 -41.500000
v 0.435252 -1.434833 -41.500000
v 0.292518 -1.470587 -41.500000
v 0.146967 -1.492177 -41.500000
v 0.000000 -1.499397 -41.500000
v -0.146967 -1.492177 -41.500000
v -0.292518 -1.470587 -41.500000
v -0.435252 -1.434833 -41.500000
v -0.573794 -1.385262 -41.500000
v -0.706811 -1.322349 -41.500000
v -0.833020 -1.246703 -41.500000
v -0.951207 -1.159050 -41.500000
v -1.060234 -1.060234 -41.500000
v -1.159050 -0.951207 -41.500000
v -1.246703 -0.833020 -41.500000
v -1.322350 -0.706811 -41.500000
v -1.385262 -0.573794 -41.500000
v -1.434834 -0.435251 -41.500000
v -1.470586 -0.292518 -41.500000
v -1.492177 -0.146967 -41.500000
v -1.499397 0.000000 -41.500000
v -1.492177 0.146967 -41.500000
v -1.470586 0.292519 -41.500000
v -1.434834 0.435251 -41.500000
v -1.385262 0.573795 -41.500000
v -1.322350 0.706810 -41.500000
v -1.246703 0.833021 -41.500000
v -1.159050 0.951208 -41.500000
v -1.060234 1.060234 -41.500000
v -0.951207 1.159050 -41.500000
v -0.833020 1.246702 -41.500000
v -0.706811 1.322350 -41.500000
v -0.573794 1.385262 -41.500000
v -0.435252 1.434834 -41.500000
v -0.292518 1.470587 -41.500000
v -0.146967 1.492176 -41.500000
vn 0.0491 0.9988 -0.0000
vn 0.1467 0.9892 -0.0000
vn 0.2430 0.9700 -0.0000
vn 0.3369 0.9415 -0.0000
vn 0.4276 0.9040 -0.0000
vn 0.5141 0.8577 -0.0000
vn 0.5957 0.8032 -0.0000
vn 0.6716 0.7410 -0.0000
vn 0.7409 0.6716 -0.0000
vn 0.8032 0.5957 -0.0000
vn 0.8577 0.5141 -0.0000
vn 0.9040 0.4276 -0.0000
vn 0.9415 0.3369 -0.0000
vn 0.9700 0.2430 -0.0000
vn 0.9892 0.1467 -0.0000
vn 0.9988 0.0491 -0.0000
vn 0.9988 -0.0491 -0.0000
vn 0.9892 -0.1467 -0.0000
vn 0.9700 -0.2430 -0.0000
vn 0.9415 -0.3369 -0.0000
vn 0.9040 -0.4276 -0.0000
vn 0.8577 -0.5141 -0.0000
vn 0.8032 -0.5957 -0.0000
vn 0.7410 -0.6716 -0.0000
vn 0.6716 -0.7410 -0.0000
vn 0.5957 -0.8032 -0.0000
vn 0.5141 -0.8577 -0.0000
vn 0.4276 -0.9040 -0.0000
vn 0.3369 -0.9415 -0.0000
vn 0.2430 -0.9700 -0.0000
vn 0.1467 -0.9892 -0.0000
vn 0.0491 -0.9988 -0.0000
vn -0.0491 -0.9988 -0.0000
vn -0.1467 -0.9892 -0.0000
vn -0.2430 -0.9700 -0.0000
vn -0.3369 -0.9415 -0.0000
vn -0.4276 -0.9040 -0.0000
vn -0.5141 -0.8577 -0.0000
vn -0.5957 -0.8032 -0.0000
vn -0.6716 -0.7410 -0.0000
vn -0.7410 -0.6716 -0.0000
vn -0.8032 -0.5957 -0.0000
vn -0.8577 -0.5141 -0.0000
vn -0.9040 -0.4276 -0.0000
vn -0.9415 -0.3369 -0.0000
vn -0.9700 -0.2430 -0.0000
vn -0.9892 -0.1467 -0.0000
vn -0.9988 -0.0491 -0.0000
vn -0.9988 0.0491 -0.0000
vn -0.9892 0.1467 -0.0000
vn -0.9700 0.2430 -0.0000
vn -0.9415 0.3369 -0.0000
vn -0.9040 0.4276 -0.0000
vn -0.8577 0.5141 -0.0000
vn -0.8032 0.5957 -0.0000
vn -0.7409 0.6716 -0.0000
vn -0.6716 0.7410 -0.0000
vn -0.5957 0.8032 -0.0000
vn -0.5141 0.8577 -0.0000
vn -0.4276 0.9040 -0.0000
vn -0.3369 0.9415 -0.0000
vn -0.2430 0.9700 -0.0000
vn -0.0000 -0.0000 1.0000
vn -0.1467 0.9892 -0.0000
vn -0.0491 0.9988 -0.0000
vn 0.0491 0.9985 -0.0250
vn 0.1467 0.9889 -0.0250
vn 0.2429 0.9697 -0.0250
vn 0.3368 0.9412 -0.0250
vn 0.4274 0.9037 -0.0250
vn 0.5139 0.8575 -0.0250
vn 0.5955 0.8030 -0.0250
vn 0.6713 0.7407 -0.0250
vn 0.7407 0.6714 -0.0250
vn 0.8030 0.5955 -0.0250
vn 0.8575 0.5139 -0.0250
vn 0.9037 0.4274 -0.0250
vn 0.9412 0.3368 -0.0250
vn 0.9697 0.2429 -0.0250
vn 0.9889 0.1467 -0.0250
vn 0.9985 0.0491 -0.0250
vn 0.9985 -0.0491 -0.0250
vn 0.9889 -0.1467 -0.0250
vn 0.9697 -0.2429 -0.0250
vn 0.9412 -0.3368 -0.0250
vn 0.9037 -0.4274 -0.0250
vn 0.8575 -0.5139 -0.0250
vn 0.8030 -0.5955 -0.0250
vn 0.7407 -0.6713 -0.0250
vn 0.6713 -0.7407 -0.0250
vn 0.5955 -0.8030 -0.0250
vn 0.5139 -0.8575 -0.0250
vn 0.4274 -0.9037 -0.0250
vn 0.3368 -0.9413 -0.0250
vn 0.2429 -0.9697 -0.0250
vn 0.1467 -0.9889 -0.0250
vn 0.0491 -0.9985 -0.0250
vn -0.0491 -0.9985 -0.0250
vn -0.1467 -0.9889 -0.0250
vn -0.2429 -0.9697 -0.0250
vn -0.3368 -0.9413 -0.0250
vn -0.4274 -0.9037 -0.0250
vn -0.5139 -0.8575 -0.0250
vn -0.5955 -0.8030 -0.0250
vn -0.6713 -0.7407 -0.0250
vn -0.7407 -0.6713 -0.0250
vn -0.8030 -0.5955 -0.0250
vn -0.8575 -0.5139 -0.0250
vn -0.9037 -0.4274 -0.0250
vn -0.9413 -0.3368 -0.0250
vn -0.9697 -0.2429 -0.0250
vn -0.9889 -0.1467 -0.0250
vn -0.9985 -0.0491 -0.0250
vn -0.9985 0.0491 -0.0250
vn -0.9889 0.1467 -0.0250
vn -0.9697 0.2429 -0.0250
vn -0.9413 0.3368 -0.0250
vn -0.9037 0.4274 -0.0250
vn -0.8575 0.5139 -0.0250
vn -0.8030 0.5955 -0.0250
vn -0.7407 0.6714 -0.0250
vn -0.6713 0.7407 -0.0250
vn -0.5955 0.8030 -0.0250
vn -0.5139 0.8575 -0.0250
vn -0.4274 0.9037 -0.0250
vn -0.3368 0.9412 -0.0250
vn -0.2429 0.9697 -0.0250
vn -0.1467 0.9889 -0.0250
vn -0.0491 0.9985 -0.0250
vn -0.0000 -0.0000 -1.0000
vt 0.037252 0.421446
vt 0.037252 -0.000000
vt 0.042415 0.000002
vt 0.042415 0.421447
vt 0.047529 0.000007
vt 0.047529 0.421452
vt 0.052544 0.000015
vt 0.052544 0.421461
vt 0.057412 0.000026
vt 0.057412 0.421472
vt 0.062086 0.000040
vt 0.062086 0.421486
vt 0.066520 0.000057
vt 0.066520 0.421503
vt 0.070673 0.000077
vt 0.070673 0.421523
vt 0.074503 0.000100
vt 0.074503 0.421546
vt 0.149007 0.421539
vt 0.149007 0.000092
vt 0.152837 0.000071
vt 0.152837 0.421519
vt 0.156990 0.000053
vt 0.156990 0.421500
vt 0.161424 0.000037
vt 0.161424 0.421484
vt 0.166098 0.000024
vt 0.166098 0.421471
vt 0.170966 0.000014
vt 0.170966 0.421461
vt 0.175981 0.000006
vt 0.175981 0.421453
vt 0.181095 0.000002
vt 0.181095 0.421449
vt 0.186258 0.000000
vt 0.186258 0.421447
vt 0.191422 0.000002
vt 0.191422 0.421449
vt 0.196536 0.000006
vt 0.196536 0.421453
vt 0.201551 0.000014
vt 0.201551 0.421461
vt 0.206419 0.000024
vt 0.206419 0.421471
vt 0.211092 0.000037
vt 0.211092 0.421484
vt 0.215527 0.000053
vt 0.215527 0.421500
vt 0.219679 0.000071
vt 0.219679 0.421519
vt 0.223510 0.000092
vt 0.223510 0.421539
vt 0.074503 0.421542
vt 0.074503 0.000096
vt 0.078334 0.000074
vt 0.078334 0.421521
vt 0.082487 0.000055
vt 0.082487 0.421502
vt 0.086921 0.000039
vt 0.086921 0.421485
vt 0.091595 0.000025
vt 0.091595 0.421472
vt 0.096462 0.000014
vt 0.096462 0.421461
vt 0.101477 0.000006
vt 0.101477 0.421453
vt 0.106591 0.000002
vt 0.106591 0.421448
vt 0.111755 0.000000
vt 0.111755 0.421447
vt 0.116919 0.000002
vt 0.116919 0.421448
vt 0.122033 0.000006
vt 0.122033 0.421453
vt 0.127048 0.000014
vt 0.127048 0.421461
vt 0.131916 0.000025
vt 0.131916 0.421472
vt 0.136589 0.000039
vt 0.136589 0.421485
vt 0.141024 0.000055
vt 0.141024 0.421502
vt 0.145176 0.000074
vt 0.145176 0.421521
vt 0.149007 0.000096
vt 0.149007 0.421542
vt 0.223510 0.421539
vt 0.223510 0.000092
vt 0.227341 0.000071
vt 0.227341 0.421519
vt 0.231493 0.000053
vt 0.231493 0.421500
vt 0.235928 0.000037
vt 0.235928 0.421484
vt 0.240601 0.000024
vt 0.240601 0.421471
vt 0.245469 0.000014
vt 0.245469 0.421461
vt 0.250484 0.000006
vt 0.250484 0.421453
vt 0.255598 0.000001
vt 0.255598 0.421449
vt 0.260762 -0.000000
vt 0.260762 0.421447
vt 0.265925 0.000001
vt 0.265925 0.421449
vt 0.271040 0.000006
vt 0.271040 0.421453
vt 0.276055 0.000014
vt 0.276055 0.421461
vt 0.280922 0.000024
vt 0.280922 0.421471
vt 0.285596 0.000037
vt 0.285596 0.421484
vt 0.290030 0.000053
vt 0.290030 0.421500
vt 0.294183 0.000071
vt 0.294183 0.421519
vt 0.298013 0.000092
vt 0.298013 0.421539
vt 0.000000 0.421546
vt 0.000000 0.000100
vt 0.003831 0.000077
vt 0.003831 0.421523
vt 0.007983 0.000057
vt 0.007983 0.421503
vt 0.012418 0.000040
vt 0.012418 0.421486
vt 0.017091 0.000026
vt 0.017091 0.421472
vt 0.021959 0.000015
vt 0.021959 0.421461
vt 0.026974 0.000007
vt 0.026974 0.421452
vt 0.732206 0.729313
vt 0.727135 0.730322
vt 0.721990 0.730828
vt 0.716820 0.730828
vt 0.711675 0.730322
vt 0.706604 0.729313
vt 0.701657 0.727812
vt 0.696880 0.725834
vt 0.692321 0.723397
vt 0.688022 0.720524
vt 0.684026 0.717245
vt 0.680370 0.713589
vt 0.677090 0.709592
vt 0.674218 0.705294
vt 0.671781 0.700734
vt 0.669803 0.695958
vt 0.668302 0.691011
vt 0.667293 0.685940
vt 0.666786 0.680795
vt 0.666786 0.675625
vt 0.667293 0.670480
vt 0.668302 0.665409
vt 0.669803 0.660462
vt 0.671781 0.655686
vt 0.674218 0.651126
vt 0.677090 0.646827
vt 0.680370 0.642831
vt 0.684026 0.639175
vt 0.688022 0.635895
vt 0.692321 0.633023
vt 0.696880 0.630586
vt 0.701657 0.628608
vt 0.706604 0.627107
vt 0.711675 0.626098
vt 0.716820 0.625591
vt 0.721990 0.625591
vt 0.727135 0.626098
vt 0.732205 0.627107
vt 0.737153 0.628608
vt 0.741929 0.630586
vt 0.746489 0.633023
vt 0.750787 0.635895
vt 0.754784 0.639175
vt 0.758439 0.642831
vt 0.761719 0.646827
vt 0.764592 0.651126
vt 0.767029 0.655685
vt 0.769007 0.660462
vt 0.770508 0.665409
vt 0.771516 0.670480
vt 0.772023 0.675625
vt 0.772023 0.680795
vt 0.771517 0.685940
vt 0.770508 0.691010
vt 0.769007 0.695958
vt 0.767029 0.700734
vt 0.764592 0.705294
vt 0.761719 0.709592
vt 0.758440 0.713589
vt 0.754784 0.717245
vt 0.750787 0.720524
vt 0.746489 0.723397
vt 0.741929 0.725834
vt 0.737153 0.727812
vt 0.032088 0.000002
vt 0.032088 0.421447
vt 0.041123 0.948340
vt 0.037252 0.948339
vt 0.044957 0.948343
vt 0.048717 0.948350
vt 0.052366 0.948358
vt 0.055870 0.948369
vt 0.059194 0.948382
vt 0.062307 0.948397
vt 0.065179 0.948413
vt 0.161203 0.948388
vt 0.158331 0.948404
vt 0.164316 0.948375
vt 0.167640 0.948363
vt 0.171144 0.948353
vt 0.174793 0.948345
vt 0.178553 0.948339
vt 0.182387 0.948336
vt 0.186258 0.948335
vt 0.190130 0.948336
vt 0.193964 0.948339
vt 0.197723 0.948345
vt 0.201373 0.948353
vt 0.204876 0.948363
vt 0.208201 0.948375
vt 0.211314 0.948388
vt 0.214186 0.948404
vt 0.086699 0.948393
vt 0.083828 0.948409
vt 0.089813 0.948378
vt 0.093137 0.948366
vt 0.096641 0.948356
vt 0.100290 0.948347
vt 0.104050 0.948342
vt 0.107884 0.948338
vt 0.111755 0.948337
vt 0.115626 0.948338
vt 0.119460 0.948342
vt 0.123220 0.948347
vt 0.126869 0.948356
vt 0.130373 0.948366
vt 0.133698 0.948378
vt 0.136811 0.948393
vt 0.139683 0.948409
vt 0.235706 0.948388
vt 0.232834 0.948404
vt 0.238819 0.948375
vt 0.242144 0.948363
vt 0.245648 0.948353
vt 0.249297 0.948345
vt 0.253057 0.948339
vt 0.256891 0.948336
vt 0.260762 0.948335
vt 0.264633 0.948336
vt 0.268467 0.948339
vt 0.272227 0.948345
vt 0.275876 0.948353
vt 0.279380 0.948363
vt 0.282704 0.948375
vt 0.285817 0.948388
vt 0.288689 0.948404
vt 0.012196 0.948397
vt 0.009324 0.948413
vt 0.015309 0.948382
vt 0.018634 0.948369
vt 0.022137 0.948358
vt 0.025787 0.948350
vt 0.029546 0.948343
vt 0.033380 0.948340
s 0
f 81/22/8 17/23/8 18/24/8 82/25/8
f 82/25/9 18/24/9 19/26/9 83/27/9
f 83/27/10 19/26/10 20/28/10 84/29/10
f 84/29/11 20/28/11 21/30/11 85/31/11
f 85/31/12 21/30/12 22/32/12 86/33/12
f 86/33/13 22/32/13 23/34/13 87/35/13
f 87/35/14 23/34/14 24/36/14 88/37/14
f 88/37/15 24/36/15 25/38/15 89/39/15
f 89/40/16 25/41/16 26/42/16 90/43/16
f 90/43/17 26/42/17 27/44/17 91/45/17
f 91/45/18 27/44/18 28/46/18 92/47/18
f 92/47/19 28/46/19 29/48/19 93/49/19
f 93/49/20 29/48/20 30/50/20 94/51/20
f 94/51/21 30/50/21 31/52/21 95/53/21
f 95/53/22 31/52/22 32/54/22 96/55/22
f 96/55/23 32/54/23 33/56/23 97/57/23
f 97/57/24 33/56/24 34/58/24 98/59/24
f 98/59/25 34/58/25 35/60/25 99/61/25
f 99/61/26 35/60/26 36/62/26 100/63/26
f 100/63/27 36/62/27 37/64/27 101/65/27
f 101/65/28 37/64/28 38/66/28 102/67/28
f 102/67/29 38/66/29 39/68/29 103/69/29
f 103/69/30 39/68/30 40/70/30 104/71/30
f 104/71/31 40/70/31 41/72/31 105/73/31
f 105/74/32 41/75/32 42/76/32 106/77/32
f 106/77/33 42/76/33 43/78/33 107/79/33
f 107/79/34 43/78/34 44/80/34 108/81/34
f 108/81/35 44/80/35 45/82/35 109/83/35
f 109/83/36 45/82/36 46/84/36 110/85/36
f 110/85/37 46/84/37 47/86/37 111/87/37
f 111/87/38 47/86/38 48/88/38 112/89/38
f 112/89/39 48/88/39 49/90/39 113/91/39
f 113/91/40 49/90/40 50/92/40 114/93/40
f 114/93/41 50/92/41 51/94/41 115/95/41
f 115/95/42 51/94/42 52/96/42 116/97/42
f 116/97/43 52/96/43 53/98/43 117/99/43
f 117/99/44 53/98/44 54/100/44 118/101/44
f 118/101/45 54/100/45 55/102/45 119/103/45
f 119/103/46 55/102/46 56/104/46 120/105/46
f 120/105/47 56/104/47 57/106/47 121/107/47
f 121/108/48 57/109/48 58/110/48 122/111/48
f 122/111/49 58/110/49 59/112/49 123/113/49
f 123/113/50 59/112/50 60/114/50 124/115/50
f 124/115/51 60/114/51 61/116/51 125/117/51
f 125/117/52 61/116/52 62/118/52 126/119/52
f 126/119/53 62/118/53 63/120/53 127/121/53
f 127/121/54 63/120/54 64/122/54 128/123/54
f 128/123/55 64/122/55 65/124/55 129/125/55
f 129/125/56 65/124/56 66/126/56 130/127/56
f 130/127/57 66/126/57 67/128/57 131/129/57
f 131/129/58 67/128/58 68/130/58 132/131/58
f 132/131/59 68/130/59 69/132/59 133/133/59
f 133/133/60 69/132/60 70/134/60 134/135/60
f 134/135/61 70/134/61 71/136/61 135/137/61
f 135/137/62 71/136/62 72/138/62 136/139/62
f 136/139/63 72/138/63 73/140/63 137/141/63
f 137/142/64 73/143/64 74/144/64 138/145/64
f 138/145/65 74/144/65 75/146/65 139/147/65
f 139/147/66 75/146/66 76/148/66 140/149/66
f 140/149/67 76/148/67 77/150/67 141/151/67
f 141/151/68 77/150/68 78/152/68 142/153/68
f 142/153/69 78/152/69 79/154/69 143/155/69
f 18/156/70 17/157/70 80/158/70 79/159/70 78/160/70 77/161/70 76/162/70 75/163/70 74/164/70 73/165/70 72/166/70 71/167/70 70/168/70 69/169/70 68/170/70 67/171/70 66/172/70 65/173/70 64/174/70 63/175/70 62/176/70 61/177/70 60/178/70 59/179/70 58/180/70 57/181/70 56/182/70 55/183/70 54/184/70 53/185/70 52/186/70 51/187/70 50/188/70 49/189/70 48/190/70 47/191/70 46/192/70 45/193/70 44/194/70 43/195/70 42/196/70 41/197/70 40/198/70 39/199/70 38/200/70 37/201/70 36/202/70 35/203/70 34/204/70 33/205/70 32/206/70 31/207/70 30/208/70 29/209/70 28/210/70 27/211/70 26/212/70 25/213/70 24/214/70 23/215/70 22/216/70 21/217/70 20/218/70 19/219/70
f 143/155/71 79/154/71 80/220/71 144/221/71
f 144/221/72 80/220/72 17/23/72 81/22/72
f 146/222/73 145/223/73 81/22/73 82/25/73
f 147/224/74 146/222/74 82/25/74 83/27/74
f 148/225/75 147/224/75 83/27/75 84/29/75
f 149/226/76 148/225/76 84/29/76 85/31/76
f 150/227/77 149/226/77 85/31/77 86/33/77
f 151/228/78 150/227/78 86/33/78 87/35/78
f 152/229/79 151/228/79 87/35/79 88/37/79
f 153/230/80 152/229/80 88/37/80 89/39/80
f 154/231/81 153/232/81 89/40/81 90/43/81
f 155/233/82 154/231/82 90/43/82 91/45/82
f 156/234/83 155/233/83 91/45/83 92/47/83
f 157/235/84 156/234/84 92/47/84 93/49/84
f 158/236/85 157/235/85 93/49/85 94/51/85
f 159/237/86 158/236/86 94/51/86 95/53/86
f 160/238/87 159/237/87 95/53/87 96/55/87
f 161/239/88 160/238/88 96/55/88 97/57/88
f 162/240/89 161/239/89 97/57/89 98/59/89
f 163/241/90 162/240/90 98/59/90 99/61/90
f 164/242/91 163/241/91 99/61/91 100/63/91
f 165/243/92 164/242/92 100/63/92 101/65/92
f 166/244/93 165/243/93 101/65/93 102/67/93
f 167/245/94 166/244/94 102/67/94 103/69/94
f 168/246/95 167/245/95 103/69/95 104/71/95
f 169/247/96 168/246/96 104/71/96 105/73/96
f 170/248/97 169/249/97 105/74/97 106/77/97
f 171/250/98 170/248/98 106/77/98 107/79/98
f 172/251/99 171/250/99 107/79/99 108/81/99
f 173/252/100 172/251/100 108/81/100 109/83/100
f 174/253/101 173/252/101 109/83/101 110/85/101
f 175/254/102 174/253/102 110/85/102 111/87/102
f 176/255/103 175/254/103 111/87/103 112/89/103
f 177/256/104 176/255/104 112/89/104 113/91/104
f 178/257/105 177/256/105 113/91/105 114/93/105
f 179/258/106 178/257/106 114/93/106 115/95/106
f 180/259/107 179/258/107 115/95/107 116/97/107
f 181/260/108 180/259/108 116/97/108 117/99/108
f 182/261/109 181/260/109 117/99/109 118/101/109
f 183/262/110 182/261/110 118/101/110 119/103/110
f 184/263/111 183/262/111 119/103/111 120/105/111
f 185/264/112 184/263/112 120/105/112 121/107/112
f 186/265/113 185/266/113 121/108/113 122/111/113
f 187/267/114 186/265/114 122/111/114 123/113/114
f 188/268/115 187/267/115 123/113/115 124/115/115
f 189/269/116 188/268/116 124/115/116 125/117/116
f 190/270/117 189/269/117 125/117/117 126/119/117
f 191/271/118 190/270/118 126/119/118 127/121/118
f 192/272/119 191/271/119 127/121/119 128/123/119
f 193/273/120 192/272/120 128/123/120 129/125/120
f 194/274/121 193/273/121 129/125/121 130/127/121
f 195/275/122 194/274/122 130/127/122 131/129/122
f 196/276/123 195/275/123 131/129/123 132/131/123
f 197/277/124 196/276/124 132/131/124 133/133/124
f 198/278/125 197/277/125 133/133/125 134/135/125
f 199/279/126 198/278/126 134/135/126 135/137/126
f 200/280/127 199/279/127 135/137/127 136/139/127
f 201/281/128 200/280/128 136/139/128 137/141/128
f 202/282/129 201/283/129 137/142/129 138/145/129
f 203/284/130 202/282/130 138/145/130 139/147/130
f 204/285/131 203/284/131 139/147/131 140/149/131
f 205/286/132 204/285/132 140/149/132 141/151/132
f 206/287/133 205/286/133 141/151/133 142/153/133
f 207/288/134 206/287/134 142/153/134 143/155/134
f 208/289/135 207/288/135 143/155/135 144/221/135
f 145/223/136 208/289/136 144/221/136 81/22/136
f 145/223/137 146/222/137 147/224/137 148/225/137 149/226/137 150/227/137 151/228/137 152/229/137 153/232/137 154/231/137 155/233/137 156/234/137 157/235/137 158/236/137 159/237/137 160/238/137 161/239/137 162/240/137 163/241/137 164/242/137 165/243/137 166/244/137 167/245/137 168/246/137 169/249/137 170/248/137 171/250/137 172/251/137 173/252/137 174/253/137 175/254/137 176/255/137 177/256/137 178/257/137 179/258/137 180/259/137 181/260/137 182/261/137 183/262/137 184/263/137 185/266/137 186/265/137 187/267/137 188/268/137 189/269/137 190/270/137 191/271/137 192/272/137 193/273/137 194/274/137 195/275/137 196/276/137 197/277/137 198/278/137 199/279/137 200/280/137 201/283/137 202/282/137 203/284/137 204/285/137 205/286/137 206/287/137 207/288/137 208/289/137
o Cube.002
v 0.000000 0.998795 -41.500000
v 0.097899 0.993984 -41.500000
v 0.194855 0.979603 -41.500000
v 0.289935 0.955786 -41.500000
v 0.382222 0.922766 -41.500000
v 0.470828 0.880857 -41.500000
v 0.554900 0.830467 -41.500000
v 0.633628 0.772078 -41.500000
v 0.706254 0.706255 -41.500000
v 0.772078 0.633629 -41.500000
v 0.830467 0.554901 -41.500000
v 0.880858 0.470829 -41.500000
v 0.922765 0.382221 -41.500000
v 0.955786 0.289934 -41.500000
v 0.979602 0.194855 -41.500000
v 0.993985 0.097898 -41.500000
v 0.998794 0.000000 -41.500000
v 0.993985 -0.097898 -41.500000
v 0.979602 -0.194855 -41.500000
v 0.955786 -0.289934 -41.500000
v 0.922765 -0.382221 -41.500000
v 0.880858 -0.470829 -41.500000
v 0.830467 -0.554900 -41.500000
v 0.772078 -0.633628 -41.500000
v 0.706254 -0.706254 -41.500000
v 0.633628 -0.772079 -41.500000
v 0.554900 -0.830466 -41.500000
v 0.470828 -0.880857 -41.500000
v 0.382222 -0.922766 -41.500000
v 0.289935 -0.955787 -41.500000
v 0.194855 -0.979603 -41.500000
v 0.097899 -0.993984 -41.500000
v 0.000000 -0.998795 -41.500000
v -0.097899 -0.993984 -41.500000
v -0.194855 -0.979603 -41.500000
v -0.289935 -0.955786 -41.500000
v -0.382222 -0.922766 -41.500000
v -0.470828 -0.880857 -41.500000
v -0.554900 -0.830466 -41.500000
v -0.633628 -0.772079 -41.500000
v -0.706254 -0.706254 -41.500000
v -0.772078 -0.633628 -41.500000
v -0.830467 -0.554900 -41.500000
v -0.880858 -0.470829 -41.500000
v -0.922765 -0.382221 -41.500000
v -0.955786 -0.289934 -41.500000
v -0.979602 -0.194855 -41.500000
v -0.993985 -0.097898 -41.500000
v -0.998794 0.000000 -41.500000
v -0.993985 0.097898 -41.500000
v -0.979602 0.194855 -41.500000
v -0.955786 0.289934 -41.500000
v -0.922765 0.382221 -41.500000
v -0.880858 0.470829 -41.500000
v -0.830467 0.554901 -41.500000
v -0.772078 0.633629 -41.500000
v -0.706254 0.706253 -41.500000
v -0.633628 0.772078 -41.500000
v -0.554900 0.830467 -41.500000
v -0.470828 0.880857 -41.500000
v -0.382222 0.922766 -41.500000
v -0.289935 0.955786 -41.500000
v -0.194855 0.979603 -41.500000
v -0.097899 0.993984 -41.500000
v 0.000083 0.998795 -66.500000
v 0.097982 0.993986 -66.500000
v 0.194938 0.979603 -66.500000
v 0.290018 0.955788 -66.500000
v 0.382305 0.922766 -66.500000
v 0.470911 0.880859 -66.500000
v 0.554983 0.830467 -66.500000
v 0.633711 0.772079 -66.500000
v 0.706337 0.706255 -66.500000
v 0.772161 0.633629 -66.500000
v 0.830550 0.554901 -66.500000
v 0.880940 0.470829 -66.500000
v 0.922848 0.382223 -66.500000
v 0.955869 0.289936 -66.500000
v 0.979685 0.194857 -66.500000
v 0.994067 0.097900 -66.500000
v 0.998877 0.000002 -66.500000
v 0.994067 -0.097898 -66.500000
v 0.979685 -0.194855 -66.500000
v 0.955869 -0.289934 -66.500000
v 0.922848 -0.382221 -66.500000
v 0.880940 -0.470827 -66.500000
v 0.830550 -0.554899 -66.500000
v 0.772161 -0.633627 -66.500000
v 0.706337 -0.706253 -66.500000
v 0.633711 -0.772078 -66.500000
v 0.554983 -0.830465 -66.500000
v 0.470911 -0.880857 -66.500000
v 0.382305 -0.922764 -66.500000
v 0.290017 -0.955786 -66.500000
v 0.194938 -0.979601 -66.500000
v 0.097982 -0.993983 -66.500000
v 0.000083 -0.998793 -66.500000
v -0.097816 -0.993983 -66.500000
v -0.194772 -0.979601 -66.500000
v -0.289852 -0.955785 -66.500000
v -0.382139 -0.922765 -66.500000
v -0.470745 -0.880857 -66.500000
v -0.554818 -0.830465 -66.500000
v -0.633545 -0.772078 -66.500000
v -0.706171 -0.706253 -66.500000
v -0.771995 -0.633627 -66.500000
v -0.830384 -0.554899 -66.500000
v -0.880775 -0.470827 -66.500000
v -0.922683 -0.382221 -66.500000
v -0.955703 -0.289934 -66.500000
v -0.979519 -0.194855 -66.500000
v -0.993902 -0.097898 -66.500000
v -0.998711 0.000002 -66.500000
v -0.993902 0.097900 -66.500000
v -0.979519 0.194857 -66.500000
v -0.955703 0.289936 -66.500000
v -0.922683 0.382223 -66.500000
v -0.880775 0.470829 -66.500000
v -0.830384 0.554901 -66.500000
v -0.771995 0.633629 -66.500000
v -0.706171 0.706255 -66.500000
v -0.633545 0.772079 -66.500000
v -0.554818 0.830467 -66.500000
v -0.470745 0.880859 -66.500000
v -0.382139 0.922766 -66.500000
v -0.289852 0.955788 -66.500000
v -0.194772 0.979603 -66.500000
v -0.097816 0.993986 -66.500000
vn -0.3369 0.9415 -0.0000
vn -0.2430 -0.9700 -0.0000
vn 0.7410 0.6716 -0.0000
vn -0.2430 0.9700 -0.0000
vn -0.3369 -0.9415 -0.0000
vn 0.8032 0.5957 -0.0000
vn -0.1467 0.9892 -0.0000
vn -0.4276 -0.9040 -0.0000
vn 0.8577 0.5141 -0.0000
vn -0.0491 0.9988 -0.0000
vn -0.5141 -0.8577 -0.0000
vn 0.9040 0.4276 -0.0000
vn -0.5957 -0.8032 -0.0000
vn 0.9415 0.3369 -0.0000
vn -0.6716 -0.7409 -0.0000
vn 0.9700 0.2430 -0.0000
vn -0.7410 -0.6716 -0.0000
vn 0.9892 0.1467 -0.0000
vn -0.8032 -0.5957 -0.0000
vn 0.9988 0.0491 -0.0000
vn -0.8577 -0.5141 -0.0000
vn 0.9988 -0.0491 -0.0000
vn -0.9040 -0.4276 -0.0000
vn 0.9892 -0.1467 -0.0000
vn -0.9415 -0.3369 -0.0000
vn 0.9700 -0.2430 -0.0000
vn -0.9700 -0.2430 -0.0000
vn 0.9415 -0.3369 -0.0000
vn -0.9892 -0.1467 -0.0000
vn 0.9040 -0.4276 -0.0000
vn -0.9988 -0.0491 -0.0000
vn 0.8577 -0.5141 -0.0000
vn -0.9988 0.0491 -0.0000
vn 0.8032 -0.5957 -0.0000
vn -0.9892 0.1467 -0.0000
vn 0.7410 -0.6716 -0.0000
vn -0.9700 0.2430 -0.0000
vn 0.6716 -0.7410 -0.0000
vn -0.9415 0.3369 -0.0000
vn 0.5957 -0.8032 -0.0000
vn -0.9040 0.4276 -0.0000
vn 0.5141 -0.8577 -0.0000
vn 0.0491 0.9988 -0.0000
vn -0.8577 0.5141 -0.0000
vn 0.4276 -0.9040 -0.0000
vn 0.1467 0.9892 -0.0000
vn -0.8032 0.5957 -0.0000
vn 0.3369 -0.9415 -0.0000
vn 0.2430 0.9700 -0.0000
vn -0.7409 0.6716 -0.0000
vn 0.2430 -0.9700 -0.0000
vn 0.3369 0.9415 -0.0000
vn -0.6716 0.7409 -0.0000
vn 0.1467 -0.9892 -0.0000
vn 0.4276 0.9040 -0.0000
vn -0.5957 0.8032 -0.0000
vn 0.0491 -0.9988 -0.0000
vn 0.5141 0.8577 -0.0000
vn -0.5141 0.8577 -0.0000
vn -0.0491 -0.9988 -0.0000
vn 0.5957 0.8032 -0.0000
vn -0.4276 0.9040 -0.0000
vn -0.1467 -0.9892 -0.0000
vn 0.6716 0.7410 -0.0000
vn -0.0000 -0.0000 -1.0000
vn -0.0000 -0.0000 1.0000
vt 0.859708 0.000013
vt 0.862139 0.000007
vt 0.862139 0.658517
vt 0.859708 0.658522
vt 0.912116 0.000003
vt 0.914620 0.000007
vt 0.914620 0.658517
vt 0.912116 0.658513
vt 0.925586 0.000046
vt 0.927499 0.000036
vt 0.927499 0.658547
vt 0.925586 0.658557
vt 0.864644 0.000003
vt 0.864644 0.658513
vt 0.917051 0.000012
vt 0.917051 0.658523
vt 0.929573 0.000026
vt 0.929573 0.658538
vt 0.867197 0.000001
vt 0.867197 0.658510
vt 0.919385 0.000019
vt 0.919385 0.658529
vt 0.931788 0.000018
vt 0.931788 0.658530
vt 0.869776 0.000000
vt 0.869776 0.658509
vt 0.921600 0.000027
vt 0.921600 0.658538
vt 0.934122 0.000012
vt 0.934122 0.658523
vt 0.923673 0.000037
vt 0.923673 0.658547
vt 0.936553 0.000007
vt 0.936553 0.658518
vt 0.925586 0.000048
vt 0.925586 0.658558
vt 0.939057 0.000003
vt 0.939057 0.658514
vt 0.962793 0.000046
vt 0.964706 0.000036
vt 0.964706 0.658547
vt 0.962793 0.658557
vt 0.941611 0.000001
vt 0.941611 0.658512
vt 0.966780 0.000026
vt 0.966780 0.658538
vt 0.944190 0.000000
vt 0.944190 0.658511
vt 0.968994 0.000019
vt 0.968994 0.658530
vt 0.946769 0.000001
vt 0.946769 0.658512
vt 0.971329 0.000012
vt 0.971328 0.658523
vt 0.949322 0.000003
vt 0.949322 0.658514
vt 0.973759 0.000007
vt 0.973759 0.658518
vt 0.951827 0.000007
vt 0.951827 0.658518
vt 0.976264 0.000003
vt 0.976264 0.658514
vt 0.954258 0.000012
vt 0.954258 0.658523
vt 0.978818 0.000001
vt 0.978818 0.658512
vt 0.956592 0.000018
vt 0.956592 0.658530
vt 0.981397 0.000000
vt 0.981397 0.658511
vt 0.958806 0.000026
vt 0.958806 0.658538
vt 0.983975 0.000001
vt 0.983975 0.658512
vt 0.960880 0.000036
vt 0.960880 0.658547
vt 0.986529 0.000003
vt 0.986529 0.658514
vt 0.962793 0.000046
vt 0.962793 0.658557
vt 0.989034 0.000007
vt 0.989034 0.658518
vt 0.888380 0.000048
vt 0.890293 0.000037
vt 0.890293 0.658547
vt 0.888380 0.658558
vt 0.991465 0.000012
vt 0.991465 0.658523
vt 0.892366 0.000027
vt 0.892366 0.658538
vt 0.993799 0.000019
vt 0.993799 0.658530
vt 0.894581 0.000019
vt 0.894581 0.658530
vt 0.872355 0.000001
vt 0.872355 0.658510
vt 0.996013 0.000026
vt 0.996013 0.658538
vt 0.896915 0.000012
vt 0.896915 0.658523
vt 0.874909 0.000003
vt 0.874909 0.658513
vt 0.998087 0.000036
vt 0.998087 0.658547
vt 0.899346 0.000007
vt 0.899346 0.658517
vt 0.877413 0.000007
vt 0.877413 0.658517
vt 1.000000 0.000046
vt 1.000000 0.658557
vt 0.901850 0.000003
vt 0.901850 0.658513
vt 0.879844 0.000013
vt 0.879844 0.658522
vt 0.851173 0.000050
vt 0.853086 0.000039
vt 0.853086 0.658548
vt 0.851173 0.658559
vt 0.904404 0.000001
vt 0.904404 0.658511
vt 0.882178 0.000020
vt 0.882178 0.658529
vt 0.855160 0.000029
vt 0.855160 0.658538
vt 0.906983 -0.000000
vt 0.906983 0.658510
vt 0.884393 0.000029
vt 0.884393 0.658538
vt 0.857374 0.000020
vt 0.857374 0.658529
vt 0.909562 0.000001
vt 0.909562 0.658511
vt 0.886467 0.000039
vt 0.886467 0.658548
vt 0.888380 0.000050
vt 0.888380 0.658559
s 0
f 269/290/138 270/291/138 334/292/138 333/293/138
f 243/294/139 244/295/139 308/296/139 307/297/139
f 217/298/140 218/299/140 282/300/140 281/301/140
f 270/291/141 271/302/141 335/303/141 334/292/141
f 244/295/142 245/304/142 309/305/142 308/296/142
f 218/299/143 219/306/143 283/307/143 282/300/143
f 271/302/144 272/308/144 336/309/144 335/303/144
f 245/304/145 246/310/145 310/311/145 309/305/145
f 219/306/146 220/312/146 284/313/146 283/307/146
f 272/308/147 209/314/147 273/315/147 336/309/147
f 246/310/148 247/316/148 311/317/148 310/311/148
f 220/312/149 221/318/149 285/319/149 284/313/149
f 247/316/150 248/320/150 312/321/150 311/317/150
f 221/318/151 222/322/151 286/323/151 285/319/151
f 248/320/152 249/324/152 313/325/152 312/321/152
f 222/322/153 223/326/153 287/327/153 286/323/153
f 249/328/154 250/329/154 314/330/154 313/331/154
f 223/326/155 224/332/155 288/333/155 287/327/155
f 250/329/156 251/334/156 315/335/156 314/330/156
f 224/332/157 225/336/157 289/337/157 288/333/157
f 251/334/158 252/338/158 316/339/158 315/335/158
f 225/336/159 226/340/159 290/341/159 289/337/159
f 252/338/160 253/342/160 317/343/160 316/339/160
f 226/340/161 227/344/161 291/345/161 290/341/161
f 253/342/162 254/346/162 318/347/162 317/343/162
f 227/344/163 228/348/163 292/349/163 291/345/163
f 254/346/164 255/350/164 319/351/164 318/347/164
f 228/348/165 229/352/165 293/353/165 292/349/165
f 255/350/166 256/354/166 320/355/166 319/351/166
f 229/352/167 230/356/167 294/357/167 293/353/167
f 256/354/168 257/358/168 321/359/168 320/355/168
f 230/356/169 231/360/169 295/361/169 294/357/169
f 257/358/170 258/362/170 322/363/170 321/359/170
f 231/360/171 232/364/171 296/365/171 295/361/171
f 258/362/172 259/366/172 323/367/172 322/363/172
f 232/364/173 233/368/173 297/369/173 296/365/173
f 259/366/174 260/370/174 324/371/174 323/367/174
f 233/372/175 234/373/175 298/374/175 297/375/175
f 260/370/176 261/376/176 325/377/176 324/371/176
f 234/373/177 235/378/177 299/379/177 298/374/177
f 261/376/178 262/380/178 326/381/178 325/377/178
f 235/378/179 236/382/179 300/383/179 299/379/179
f 209/314/180 210/384/180 274/385/180 273/315/180
f 262/380/181 263/386/181 327/387/181 326/381/181
f 236/382/182 237/388/182 301/389/182 300/383/182
f 210/384/183 211/390/183 275/391/183 274/385/183
f 263/386/184 264/392/184 328/393/184 327/387/184
f 237/388/185 238/394/185 302/395/185 301/389/185
f 211/390/186 212/396/186 276/397/186 275/391/186
f 264/392/187 265/398/187 329/399/187 328/393/187
f 238/394/188 239/400/188 303/401/188 302/395/188
f 212/396/189 213/402/189 277/403/189 276/397/189
f 265/404/190 266/405/190 330/406/190 329/407/190
f 239/400/191 240/408/191 304/409/191 303/401/191
f 213/402/192 214/410/192 278/411/192 277/403/192
f 266/405/193 267/412/193 331/413/193 330/406/193
f 240/408/194 241/414/194 305/415/194 304/409/194
f 214/410/195 215/416/195 279/417/195 278/411/195
f 267/412/196 268/418/196 332/419/196 331/413/196
f 241/414/197 242/420/197 306/421/197 305/415/197
f 215/416/198 216/422/198 280/423/198 279/417/198
f 268/418/199 269/290/199 333/293/199 332/419/199
f 242/420/200 243/294/200 307/297/200 306/421/200
f 216/422/201 217/424/201 281/425/201 280/423/201
f 273/315/202 274/385/202 275/391/202 276/397/202 277/403/202 278/411/202 279/417/202 280/423/202 281/301/202 282/300/202 283/307/202 284/313/202 285/319/202 286/323/202 287/327/202 288/333/202 289/337/202 290/341/202 291/345/202 292/349/202 293/353/202 294/357/202 295/361/202 296/365/202 297/375/202 298/374/202 299/379/202 300/383/202 301/389/202 302/395/202 303/401/202 304/409/202 305/415/202 306/421/202 307/297/202 308/296/202 309/305/202 310/311/202 311/317/202 312/321/202 313/331/202 314/330/202 315/335/202 316/339/202 317/343/202 318/347/202 319/351/202 320/355/202 321/359/202 322/363/202 323/367/202 324/371/202 325/377/202 326/381/202 327/387/202 328/393/202 329/407/202 330/406/202 331/413/202 332/419/202 333/293/202 334/292/202 335/303/202 336/309/202
f 209/314/203 272/308/203 271/302/203 270/291/203 269/290/203 268/418/203 267/412/203 266/405/203 265/404/203 264/392/203 263/386/203 262/380/203 261/376/203 260/370/203 259/366/203 258/362/203 257/358/203 256/354/203 255/350/203 254/346/203 253/342/203 252/338/203 251/334/203 250/329/203 249/328/203 248/320/203 247/316/203 246/310/203 245/304/203 244/295/203 243/294/203 242/420/203 241/414/203 240/408/203 239/400/203 238/394/203 237/388/203 236/382/203 235/378/203 234/373/203 233/372/203 232/364/203 231/360/203 230/356/203 229/352/203 228/348/203 227/344/203 226/340/203 225/336/203 224/332/203 223/326/203 222/322/203 221/318/203 220/312/203 219/306/203 218/299/203 217/298/203 216/422/203 215/416/203 214/410/203 213/402/203 212/396/203 211/390/203 210/384/203
