# Blender 4.5.6 LTS
# www.blender.org
mtllib kin_orbitalcannon_base_col.mtl
o Cylinder.004
v 0.000000 -2.000000 -16.000000
v 0.000000 2.000000 -16.000000
v 1.568274 -2.000000 -15.922956
v 1.568274 2.000000 -15.922956
v 3.121445 -2.000000 -15.692564
v 3.121445 2.000000 -15.692564
v 4.644555 -2.000000 -15.311046
v 4.644555 2.000000 -15.311046
v 6.122935 -2.000000 -14.782072
v 6.122935 2.000000 -14.782072
v 7.542348 -2.000000 -14.110740
v 7.542348 2.000000 -14.110740
v 8.889124 -2.000000 -13.303514
v 8.889124 2.000000 -13.303514
v 10.150293 -2.000000 -12.368167
v 10.150293 2.000000 -12.368167
v 11.313708 -2.000000 -11.313708
v 11.313708 2.000000 -11.313708
v 12.368167 -2.000000 -10.150293
v 12.368167 2.000000 -10.150293
v 13.303514 -2.000000 -8.889124
v 13.303514 2.000000 -8.889124
v 14.110740 -2.000000 -7.542348
v 14.110740 2.000000 -7.542348
v 14.782072 -2.000000 -6.122935
v 14.782072 2.000000 -6.122935
v 15.311046 -2.000000 -4.644555
v 15.311046 2.000000 -4.644555
v 15.692564 -2.000000 -3.121445
v 15.692564 2.000000 -3.121445
v 15.922956 -2.000000 -1.568274
v 15.922956 2.000000 -1.568274
v 16.000000 -2.000000 0.000000
v 16.000000 2.000000 0.000000
v 15.922956 -2.000000 1.568274
v 15.922956 2.000000 1.568274
v 15.692564 -2.000000 3.121445
v 15.692564 2.000000 3.121445
v 15.311046 -2.000000 4.644555
v 15.311046 2.000000 4.644555
v 14.782072 -2.000000 6.122935
v 14.782072 2.000000 6.122935
v 14.110740 -2.000000 7.542348
v 14.110740 2.000000 7.542348
v 13.303514 -2.000000 8.889124
v 13.303514 2.000000 8.889124
v 12.368167 -2.000000 10.150293
v 12.368167 2.000000 10.150293
v 11.313708 -2.000000 11.313708
v 11.313708 2.000000 11.313708
v 10.150293 -2.000000 12.368167
v 10.150293 2.000000 12.368167
v 8.889124 -2.000000 13.303514
v 8.889124 2.000000 13.303514
v 7.542348 -2.000000 14.110740
v 7.542348 2.000000 14.110740
v 6.122935 -2.000000 14.782072
v 6.122935 2.000000 14.782072
v 4.644555 -2.000000 15.311046
v 4.644555 2.000000 15.311046
v 3.121445 -2.000000 15.692564
v 3.121445 2.000000 15.692564
v 1.568274 -2.000000 15.922956
v 1.568274 2.000000 15.922956
v 0.000000 -2.000000 16.000000
v 0.000000 2.000000 16.000000
v -1.568274 -2.000000 15.922956
v -1.568274 2.000000 15.922956
v -3.121445 -2.000000 15.692564
v -3.121445 2.000000 15.692564
v -4.644555 -2.000000 15.311046
v -4.644555 2.000000 15.311046
v -6.122935 -2.000000 14.782072
v -6.122935 2.000000 14.782072
v -7.542348 -2.000000 14.110740
v -7.542348 2.000000 14.110740
v -8.889124 -2.000000 13.303514
v -8.889124 2.000000 13.303514
v -10.150293 -2.000000 12.368167
v -10.150293 2.000000 12.368167
v -11.313708 -2.000000 11.313708
v -11.313708 2.000000 11.313708
v -12.368167 -2.000000 10.150293
v -12.368167 2.000000 10.150293
v -13.303514 -2.000000 8.889124
v -13.303514 2.000000 8.889124
v -14.110740 -2.000000 7.542348
v -14.110740 2.000000 7.542348
v -14.782072 -2.000000 6.122935
v -14.782072 2.000000 6.122935
v -15.311046 -2.000000 4.644555
v -15.311046 2.000000 4.644555
v -15.692564 -2.000000 3.121445
v -15.692564 2.000000 3.121445
v -15.922956 -2.000000 1.568274
v -15.922956 2.000000 1.568274
v -16.000000 -2.000000 0.000000
v -16.000000 2.000000 0.000000
v -15.922956 -2.000000 -1.568274
v -15.922956 2.000000 -1.568274
v -15.692564 -2.000000 -3.121445
v -15.692564 2.000000 -3.121445
v -15.311046 -2.000000 -4.644555
v -15.311046 2.000000 -4.644555
v -14.782072 -2.000000 -6.122935
v -14.782072 2.000000 -6.122935
v -14.110740 -2.000000 -7.542348
v -14.110740 2.000000 -7.542348
v -13.303514 -2.000000 -8.889124
v -13.303514 2.000000 -8.889124
v -12.368167 -2.000000 -10.150293
v -12.368167 2.000000 -10.150293
v -11.313708 -2.000000 -11.313708
v -11.313708 2.000000 -11.313708
v -10.150293 -2.000000 -12.368167
v -10.150293 2.000000 -12.368167
v -8.889124 -2.000000 -13.303514
v -8.889124 2.000000 -13.303514
v -7.542348 -2.000000 -14.110740
v -7.542348 2.000000 -14.110740
v -6.122935 -2.000000 -14.782072
v -6.122935 2.000000 -14.782072
v -4.644555 -2.000000 -15.311046
v -4.644555 2.000000 -15.311046
v -3.121445 -2.000000 -15.692564
v -3.121445 2.000000 -15.692564
v -1.568274 -2.000000 -15.922956
v -1.568274 2.000000 -15.922956
v 0.000000 4.000000 -15.000000
v 1.470257 4.000000 -14.927771
v 2.926355 4.000000 -14.711779
v 4.354270 4.000000 -14.354105
v 5.740252 4.000000 -13.858192
v 7.070951 4.000000 -13.228819
v 8.333553 4.000000 -12.472044
v 9.515900 4.000000 -11.595157
v 10.606602 4.000000 -10.606602
v 11.595157 4.000000 -9.515900
v 12.472044 4.000000 -8.333553
v 13.228819 4.000000 -7.070951
v 13.858192 4.000000 -5.740252
v 14.354105 4.000000 -4.354270
v 14.711779 4.000000 -2.926355
v 14.927771 4.000000 -1.470257
v 15.000000 4.000000 0.000000
v 14.927771 4.000000 1.470257
v 14.711779 4.000000 2.926355
v 14.354105 4.000000 4.354270
v 13.858192 4.000000 5.740252
v 13.228819 4.000000 7.070951
v 12.472044 4.000000 8.333553
v 11.595157 4.000000 9.515900
v 10.606602 4.000000 10.606602
v 9.515900 4.000000 11.595157
v 8.333553 4.000000 12.472044
v 7.070951 4.000000 13.228819
v 5.740252 4.000000 13.858192
v 4.354270 4.000000 14.354105
v 2.926355 4.000000 14.711779
v 1.470257 4.000000 14.927771
v 0.000000 4.000000 15.000000
v -1.470257 4.000000 14.927771
v -2.926355 4.000000 14.711779
v -4.354270 4.000000 14.354105
v -5.740252 4.000000 13.858192
v -7.070951 4.000000 13.228819
v -8.333553 4.000000 12.472044
v -9.515900 4.000000 11.595157
v -10.606602 4.000000 10.606602
v -11.595157 4.000000 9.515900
v -12.472044 4.000000 8.333553
v -13.228819 4.000000 7.070951
v -13.858192 4.000000 5.740252
v -14.354105 4.000000 4.354270
v -14.711779 4.000000 2.926355
v -14.927771 4.000000 1.470257
v -15.000000 4.000000 0.000000
v -14.927771 4.000000 -1.470257
v -14.711779 4.000000 -2.926355
v -14.354105 4.000000 -4.354270
v -13.858192 4.000000 -5.740252
v -13.228819 4.000000 -7.070951
v -12.472044 4.000000 -8.333553
v -11.595157 4.000000 -9.515900
v -10.606602 4.000000 -10.606602
v -9.515900 4.000000 -11.595157
v -8.333553 4.000000 -12.472044
v -7.070951 4.000000 -13.228819
v -5.740252 4.000000 -13.858192
v -4.354270 4.000000 -14.354105
v -2.926355 4.000000 -14.711779
v -1.470257 4.000000 -14.927771
vn 0.0491 -0.0000 -0.9988
vn 0.1467 -0.0000 -0.9892
vn 0.2430 -0.0000 -0.9700
vn 0.3369 -0.0000 -0.9415
vn 0.4276 -0.0000 -0.9040
vn 0.5141 -0.0000 -0.8577
vn 0.5957 -0.0000 -0.8032
vn 0.6716 -0.0000 -0.7410
vn 0.7410 -0.0000 -0.6716
vn 0.8032 -0.0000 -0.5957
vn 0.8577 -0.0000 -0.5141
vn 0.9040 -0.0000 -0.4276
vn 0.9415 -0.0000 -0.3369
vn 0.9700 -0.0000 -0.2430
vn 0.9892 -0.0000 -0.1467
vn 0.9988 -0.0000 -0.0491
vn 0.9988 -0.0000 0.0491
vn 0.9892 -0.0000 0.1467
vn 0.9700 -0.0000 0.2430
vn 0.9415 -0.0000 0.3369
vn 0.9040 -0.0000 0.4276
vn 0.8577 -0.0000 0.5141
vn 0.8032 -0.0000 0.5957
vn 0.7410 -0.0000 0.6716
vn 0.6716 -0.0000 0.7410
vn 0.5957 -0.0000 0.8032
vn 0.5141 -0.0000 0.8577
vn 0.4276 -0.0000 0.9040
vn 0.3369 -0.0000 0.9415
vn 0.2430 -0.0000 0.9700
vn 0.1467 -0.0000 0.9892
vn 0.0491 -0.0000 0.9988
vn -0.0491 -0.0000 0.9988
vn -0.1467 -0.0000 0.9892
vn -0.2430 -0.0000 0.9700
vn -0.3369 -0.0000 0.9415
vn -0.4276 -0.0000 0.9040
vn -0.5141 -0.0000 0.8577
vn -0.5957 -0.0000 0.8032
vn -0.6716 -0.0000 0.7410
vn -0.7410 -0.0000 0.6716
vn -0.8032 -0.0000 0.5957
vn -0.8577 -0.0000 0.5141
vn -0.9040 -0.0000 0.4276
vn -0.9415 -0.0000 0.3369
vn -0.9700 -0.0000 0.2430
vn -0.9892 -0.0000 0.1467
vn -0.9988 -0.0000 0.0491
vn -0.9988 -0.0000 -0.0491
vn -0.9892 -0.0000 -0.1467
vn -0.9700 -0.0000 -0.2430
vn -0.9415 -0.0000 -0.3369
vn -0.9040 -0.0000 -0.4276
vn -0.8577 -0.0000 -0.5141
vn -0.8032 -0.0000 -0.5957
vn -0.7410 -0.0000 -0.6716
vn -0.6716 -0.0000 -0.7410
vn -0.5957 -0.0000 -0.8032
vn -0.5141 -0.0000 -0.8577
vn -0.4276 -0.0000 -0.9040
vn -0.3369 -0.0000 -0.9415
vn -0.2430 -0.0000 -0.9700
vn -0.3825 0.4468 -0.8087
vn -0.1467 -0.0000 -0.9892
vn -0.0491 -0.0000 -0.9988
vn -0.0000 -1.0000 -0.0000
vn -0.1313 0.4468 0.8850
vn 0.6008 0.4468 -0.6629
vn -0.7674 0.4468 0.4599
vn 0.8936 0.4468 0.0439
vn -0.8423 0.4468 -0.3014
vn 0.5329 0.4468 0.7186
vn -0.3014 0.4468 -0.8423
vn -0.2174 0.4468 0.8678
vn 0.6629 0.4468 -0.6008
vn -0.8087 0.4468 0.3825
vn 0.8850 0.4468 0.1313
vn -0.8087 0.4468 -0.3825
vn 0.0439 0.4468 -0.8936
vn 0.4599 0.4468 0.7674
vn -0.2174 0.4468 -0.8678
vn -0.3014 0.4468 0.8423
vn 0.7186 0.4468 -0.5329
vn -0.8423 0.4468 0.3014
vn 0.8678 0.4468 0.2174
vn -0.7674 0.4468 -0.4599
vn 0.3825 0.4468 0.8087
vn -0.1313 0.4468 -0.8850
vn 0.1313 0.4468 -0.8850
vn -0.3825 0.4468 0.8087
vn 0.7674 0.4468 -0.4599
vn -0.8678 0.4468 0.2174
vn 0.8423 0.4468 0.3014
vn -0.7186 0.4468 -0.5329
vn 0.3014 0.4468 0.8423
vn -0.0439 0.4468 -0.8936
vn 0.2174 0.4468 -0.8678
vn -0.4599 0.4468 0.7674
vn 0.8087 0.4468 -0.3825
vn -0.8850 0.4468 0.1313
vn 0.8087 0.4468 0.3825
vn -0.6629 0.4468 -0.6008
vn 0.2174 0.4468 0.8678
vn 0.3014 0.4468 -0.8423
vn -0.5329 0.4468 0.7186
vn 0.8423 0.4468 -0.3014
vn -0.8936 0.4468 0.0439
vn 0.7674 0.4468 0.4599
vn -0.6008 0.4468 -0.6629
vn 0.1313 0.4468 0.8850
vn 0.3825 0.4468 -0.8087
vn -0.6008 0.4468 0.6629
vn 0.8678 0.4468 -0.2174
vn -0.8936 0.4468 -0.0439
vn 0.7186 0.4468 0.5329
vn -0.5329 0.4468 -0.7186
vn 0.0439 0.4468 0.8936
vn 0.4599 0.4468 -0.7674
vn -0.6629 0.4468 0.6008
vn 0.8850 0.4468 -0.1313
vn -0.8850 0.4468 -0.1313
vn 0.6629 0.4468 0.6008
vn -0.4599 0.4468 -0.7674
vn -0.0439 0.4468 0.8936
vn 0.5329 0.4468 -0.7186
vn -0.7186 0.4468 0.5329
vn 0.8936 0.4468 -0.0439
vn -0.8678 0.4468 -0.2174
vn 0.6008 0.4468 0.6629
vn -0.0000 1.0000 -0.0000
vt 1.000000 0.500000
vt 1.000000 1.000000
vt 0.984375 1.000000
vt 0.984375 0.500000
vt 0.968750 1.000000
vt 0.968750 0.500000
vt 0.953125 1.000000
vt 0.953125 0.500000
vt 0.937500 1.000000
vt 0.937500 0.500000
vt 0.921875 1.000000
vt 0.921875 0.500000
vt 0.906250 1.000000
vt 0.906250 0.500000
vt 0.890625 1.000000
vt 0.890625 0.500000
vt 0.875000 1.000000
vt 0.875000 0.500000
vt 0.859375 1.000000
vt 0.859375 0.500000
vt 0.843750 1.000000
vt 0.843750 0.500000
vt 0.828125 1.000000
vt 0.828125 0.500000
vt 0.812500 1.000000
vt 0.812500 0.500000
vt 0.796875 1.000000
vt 0.796875 0.500000
vt 0.781250 1.000000
vt 0.781250 0.500000
vt 0.765625 1.000000
vt 0.765625 0.500000
vt 0.750000 1.000000
vt 0.750000 0.500000
vt 0.734375 1.000000
vt 0.734375 0.500000
vt 0.718750 1.000000
vt 0.718750 0.500000
vt 0.703125 1.000000
vt 0.703125 0.500000
vt 0.687500 1.000000
vt 0.687500 0.500000
vt 0.671875 1.000000
vt 0.671875 0.500000
vt 0.656250 1.000000
vt 0.656250 0.500000
vt 0.640625 1.000000
vt 0.640625 0.500000
vt 0.625000 1.000000
vt 0.625000 0.500000
vt 0.609375 1.000000
vt 0.609375 0.500000
vt 0.593750 1.000000
vt 0.593750 0.500000
vt 0.578125 1.000000
vt 0.578125 0.500000
vt 0.562500 1.000000
vt 0.562500 0.500000
vt 0.546875 1.000000
vt 0.546875 0.500000
vt 0.531250 1.000000
vt 0.531250 0.500000
vt 0.515625 1.000000
vt 0.515625 0.500000
vt 0.500000 1.000000
vt 0.500000 0.500000
vt 0.484375 1.000000
vt 0.484375 0.500000
vt 0.468750 1.000000
vt 0.468750 0.500000
vt 0.453125 1.000000
vt 0.453125 0.500000
vt 0.437500 1.000000
vt 0.437500 0.500000
vt 0.421875 1.000000
vt 0.421875 0.500000
vt 0.406250 1.000000
vt 0.406250 0.500000
vt 0.390625 1.000000
vt 0.390625 0.500000
vt 0.375000 1.000000
vt 0.375000 0.500000
vt 0.359375 1.000000
vt 0.359375 0.500000
vt 0.343750 1.000000
vt 0.343750 0.500000
vt 0.328125 1.000000
vt 0.328125 0.500000
vt 0.312500 1.000000
vt 0.312500 0.500000
vt 0.296875 1.000000
vt 0.296875 0.500000
vt 0.281250 1.000000
vt 0.281250 0.500000
vt 0.265625 1.000000
vt 0.265625 0.500000
vt 0.250000 1.000000
vt 0.250000 0.500000
vt 0.234375 1.000000
vt 0.234375 0.500000
vt 0.218750 1.000000
vt 0.218750 0.500000
vt 0.203125 1.000000
vt 0.203125 0.500000
vt 0.187500 1.000000
vt 0.187500 0.500000
vt 0.171875 1.000000
vt 0.171875 0.500000
vt 0.156250 1.000000
vt 0.156250 0.500000
vt 0.140625 1.000000
vt 0.140625 0.500000
vt 0.125000 1.000000
vt 0.125000 0.500000
vt 0.109375 1.000000
vt 0.109375 0.500000
vt 0.093750 1.000000
vt 0.093750 0.500000
vt 0.078125 1.000000
vt 0.078125 0.500000
vt 0.062500 1.000000
vt 0.062500 0.500000
vt 0.046875 1.000000
vt 0.046875 0.500000
vt 0.031250 1.000000
vt 0.031250 0.500000
vt 0.015625 1.000000
vt 0.015625 0.500000
vt 0.000000 1.000000
vt 0.000000 0.500000
vt 0.750000 0.490000
vt 0.773524 0.488844
vt 0.796822 0.485388
vt 0.819668 0.479666
vt 0.841844 0.471731
vt 0.863135 0.461661
vt 0.883337 0.449553
vt 0.902254 0.435522
vt 0.919706 0.419706
vt 0.935522 0.402254
vt 0.949553 0.383337
vt 0.961661 0.363135
vt 0.971731 0.341844
vt 0.979666 0.319668
vt 0.985388 0.296822
vt 0.988844 0.273524
vt 0.990000 0.250000
vt 0.988844 0.226476
vt 0.985388 0.203178
vt 0.979666 0.180332
vt 0.971731 0.158156
vt 0.961661 0.136865
vt 0.949553 0.116663
vt 0.935522 0.097746
vt 0.919706 0.080294
vt 0.902254 0.064478
vt 0.883337 0.050447
vt 0.863135 0.038339
vt 0.841844 0.028269
vt 0.819668 0.020334
vt 0.796822 0.014612
vt 0.773524 0.011156
vt 0.750000 0.010000
vt 0.726476 0.011156
vt 0.703178 0.014612
vt 0.680332 0.020334
vt 0.658156 0.028269
vt 0.636865 0.038339
vt 0.616663 0.050447
vt 0.597746 0.064478
vt 0.580294 0.080294
vt 0.564478 0.097746
vt 0.550447 0.116663
vt 0.538339 0.136865
vt 0.528269 0.158156
vt 0.520334 0.180332
vt 0.514612 0.203178
vt 0.511156 0.226476
vt 0.510000 0.250000
vt 0.511156 0.273524
vt 0.514612 0.296822
vt 0.520334 0.319668
vt 0.528269 0.341844
vt 0.538339 0.363135
vt 0.550447 0.383337
vt 0.564478 0.402254
vt 0.580294 0.419706
vt 0.597746 0.435522
vt 0.616663 0.449553
vt 0.636865 0.461661
vt 0.658156 0.471731
vt 0.680332 0.479666
vt 0.703178 0.485388
vt 0.726476 0.488844
s 0
f 1/1/1 2/2/1 4/3/1 3/4/1
f 3/4/2 4/3/2 6/5/2 5/6/2
f 5/6/3 6/5/3 8/7/3 7/8/3
f 7/8/4 8/7/4 10/9/4 9/10/4
f 9/10/5 10/9/5 12/11/5 11/12/5
f 11/12/6 12/11/6 14/13/6 13/14/6
f 13/14/7 14/13/7 16/15/7 15/16/7
f 15/16/8 16/15/8 18/17/8 17/18/8
f 17/18/9 18/17/9 20/19/9 19/20/9
f 19/20/10 20/19/10 22/21/10 21/22/10
f 21/22/11 22/21/11 24/23/11 23/24/11
f 23/24/12 24/23/12 26/25/12 25/26/12
f 25/26/13 26/25/13 28/27/13 27/28/13
f 27/28/14 28/27/14 30/29/14 29/30/14
f 29/30/15 30/29/15 32/31/15 31/32/15
f 31/32/16 32/31/16 34/33/16 33/34/16
f 33/34/17 34/33/17 36/35/17 35/36/17
f 35/36/18 36/35/18 38/37/18 37/38/18
f 37/38/19 38/37/19 40/39/19 39/40/19
f 39/40/20 40/39/20 42/41/20 41/42/20
f 41/42/21 42/41/21 44/43/21 43/44/21
f 43/44/22 44/43/22 46/45/22 45/46/22
f 45/46/23 46/45/23 48/47/23 47/48/23
f 47/48/24 48/47/24 50/49/24 49/50/24
f 49/50/25 50/49/25 52/51/25 51/52/25
f 51/52/26 52/51/26 54/53/26 53/54/26
f 53/54/27 54/53/27 56/55/27 55/56/27
f 55/56/28 56/55/28 58/57/28 57/58/28
f 57/58/29 58/57/29 60/59/29 59/60/29
f 59/60/30 60/59/30 62/61/30 61/62/30
f 61/62/31 62/61/31 64/63/31 63/64/31
f 63/64/32 64/63/32 66/65/32 65/66/32
f 65/66/33 66/65/33 68/67/33 67/68/33
f 67/68/34 68/67/34 70/69/34 69/70/34
f 69/70/35 70/69/35 72/71/35 71/72/35
f 71/72/36 72/71/36 74/73/36 73/74/36
f 73/74/37 74/73/37 76/75/37 75/76/37
f 75/76/38 76/75/38 78/77/38 77/78/38
f 77/78/39 78/77/39 80/79/39 79/80/39
f 79/80/40 80/79/40 82/81/40 81/82/40
f 81/82/41 82/81/41 84/83/41 83/84/41
f 83/84/42 84/83/42 86/85/42 85/86/42
f 85/86/43 86/85/43 88/87/43 87/88/43
f 87/88/44 88/87/44 90/89/44 89/90/44
f 89/90/45 90/89/45 92/91/45 91/92/45
f 91/92/46 92/91/46 94/93/46 93/94/46
f 93/94/47 94/93/47 96/95/47 95/96/47
f 95/96/48 96/95/48 98/97/48 97/98/48
f 97/98/49 98/97/49 100/99/49 99/100/49
f 99/100/50 100/99/50 102/101/50 101/102/50
f 101/102/51 102/101/51 104/103/51 103/104/51
f 103/104/52 104/103/52 106/105/52 105/106/52
f 105/106/53 106/105/53 108/107/53 107/108/53
f 107/108/54 108/107/54 110/109/54 109/110/54
f 109/110/55 110/109/55 112/111/55 111/112/55
f 111/112/56 112/111/56 114/113/56 113/114/56
f 113/114/57 114/113/57 116/115/57 115/116/57
f 115/116/58 116/115/58 118/117/58 117/118/58
f 117/118/59 118/117/59 120/119/59 119/120/59
f 119/120/60 120/119/60 122/121/60 121/122/60
f 121/122/61 122/121/61 124/123/61 123/124/61
f 123/124/62 124/123/62 126/125/62 125/126/62
f 122/121/63 120/119/63 188/119/63 189/121/63
f 125/126/64 126/125/64 128/127/64 127/128/64
f 127/128/65 128/127/65 2/129/65 1/130/65
f 1/131/66 3/132/66 5/133/66 7/134/66 9/135/66 11/136/66 13/137/66 15/138/66 17/139/66 19/140/66 21/141/66 23/142/66 25/143/66 27/144/66 29/145/66 31/146/66 33/147/66 35/148/66 37/149/66 39/150/66 41/151/66 43/152/66 45/153/66 47/154/66 49/155/66 51/156/66 53/157/66 55/158/66 57/159/66 59/160/66 61/161/66 63/162/66 65/163/66 67/164/66 69/165/66 71/166/66 73/167/66 75/168/66 77/169/66 79/170/66 81/171/66 83/172/66 85/173/66 87/174/66 89/175/66 91/176/66 93/177/66 95/178/66 97/179/66 99/180/66 101/181/66 103/182/66 105/183/66 107/184/66 109/185/66 111/186/66 113/187/66 115/188/66 117/189/66 119/190/66 121/191/66 123/192/66 125/193/66 127/194/66
f 70/69/67 68/67/67 162/67/67 163/69/67
f 18/17/68 16/15/68 136/15/68 137/17/68
f 88/87/69 86/85/69 171/85/69 172/87/69
f 36/35/70 34/33/70 145/33/70 146/35/70
f 106/105/71 104/103/71 180/103/71 181/105/71
f 54/53/72 52/51/72 154/51/72 155/53/72
f 124/123/73 122/121/73 189/121/73 190/123/73
f 72/71/74 70/69/74 163/69/74 164/71/74
f 20/19/75 18/17/75 137/17/75 138/19/75
f 90/89/76 88/87/76 172/87/76 173/89/76
f 38/37/77 36/35/77 146/35/77 147/37/77
f 108/107/78 106/105/78 181/105/78 182/107/78
f 4/3/79 2/2/79 129/2/79 130/3/79
f 56/55/80 54/53/80 155/53/80 156/55/80
f 126/125/81 124/123/81 190/123/81 191/125/81
f 74/73/82 72/71/82 164/71/82 165/73/82
f 22/21/83 20/19/83 138/19/83 139/21/83
f 92/91/84 90/89/84 173/89/84 174/91/84
f 40/39/85 38/37/85 147/37/85 148/39/85
f 110/109/86 108/107/86 182/107/86 183/109/86
f 58/57/87 56/55/87 156/55/87 157/57/87
f 128/127/88 126/125/88 191/125/88 192/127/88
f 6/5/89 4/3/89 130/3/89 131/5/89
f 76/75/90 74/73/90 165/73/90 166/75/90
f 24/23/91 22/21/91 139/21/91 140/23/91
f 94/93/92 92/91/92 174/91/92 175/93/92
f 42/41/93 40/39/93 148/39/93 149/41/93
f 112/111/94 110/109/94 183/109/94 184/111/94
f 60/59/95 58/57/95 157/57/95 158/59/95
f 2/129/96 128/127/96 192/127/96 129/129/96
f 8/7/97 6/5/97 131/5/97 132/7/97
f 78/77/98 76/75/98 166/75/98 167/77/98
f 26/25/99 24/23/99 140/23/99 141/25/99
f 96/95/100 94/93/100 175/93/100 176/95/100
f 44/43/101 42/41/101 149/41/101 150/43/101
f 114/113/102 112/111/102 184/111/102 185/113/102
f 62/61/103 60/59/103 158/59/103 159/61/103
f 10/9/104 8/7/104 132/7/104 133/9/104
f 80/79/105 78/77/105 167/77/105 168/79/105
f 28/27/106 26/25/106 141/25/106 142/27/106
f 98/97/107 96/95/107 176/95/107 177/97/107
f 46/45/108 44/43/108 150/43/108 151/45/108
f 116/115/109 114/113/109 185/113/109 186/115/109
f 64/63/110 62/61/110 159/61/110 160/63/110
f 12/11/111 10/9/111 133/9/111 134/11/111
f 82/81/112 80/79/112 168/79/112 169/81/112
f 30/29/113 28/27/113 142/27/113 143/29/113
f 100/99/114 98/97/114 177/97/114 178/99/114
f 48/47/115 46/45/115 151/45/115 152/47/115
f 118/117/116 116/115/116 186/115/116 187/117/116
f 66/65/117 64/63/117 160/63/117 161/65/117
f 14/13/118 12/11/118 134/11/118 135/13/118
f 84/83/119 82/81/119 169/81/119 170/83/119
f 32/31/120 30/29/120 143/29/120 144/31/120
f 102/101/121 100/99/121 178/99/121 179/101/121
f 50/49/122 48/47/122 152/47/122 153/49/122
f 120/119/123 118/117/123 187/117/123 188/119/123
f 68/67/124 66/65/124 161/65/124 162/67/124
f 16/15/125 14/13/125 135/13/125 136/15/125
f 86/85/126 84/83/126 170/83/126 171/85/126
f 34/33/127 32/31/127 144/31/127 145/33/127
f 104/103/128 102/101/128 179/101/128 180/103/128
f 52/51/129 50/49/129 153/49/129 154/51/129
f 130/3/130 129/129/130 192/127/130 191/125/130 190/123/130 189/121/130 188/119/130 187/117/130 186/115/130 185/113/130 184/111/130 183/109/130 182/107/130 181/105/130 180/103/130 179/101/130 178/99/130 177/97/130 176/95/130 175/93/130 174/91/130 173/89/130 172/87/130 171/85/130 170/83/130 169/81/130 168/79/130 167/77/130 166/75/130 165/73/130 164/71/130 163/69/130 162/67/130 161/65/130 160/63/130 159/61/130 158/59/130 157/57/130 156/55/130 155/53/130 154/51/130 153/49/130 152/47/130 151/45/130 150/43/130 149/41/130 148/39/130 147/37/130 146/35/130 145/33/130 144/31/130 143/29/130 142/27/130 141/25/130 140/23/130 139/21/130 138/19/130 137/17/130 136/15/130 135/13/130 134/11/130 133/9/130 132/7/130 131/5/130
