# Blender 4.5.6 LTS
# www.blender.org
mtllib kin_orbitalcannon_rotate_col.mtl
o Cylinder.005
v 0.000000 4.000000 -15.000000
v 1.470257 4.000000 -14.927771
v 2.926355 4.000000 -14.711779
v 4.354270 4.000000 -14.354105
v 5.740252 4.000000 -13.858192
v 7.070951 4.000000 -13.228819
v 8.333553 4.000000 -12.472044
v 9.515900 4.000000 -11.595157
v 10.606602 4.000000 -10.606602
v 11.595157 4.000000 -9.515900
v 12.472044 4.000000 -8.333553
v 13.228819 4.000000 -7.070951
v 13.858192 4.000000 -5.740252
v 14.354105 4.000000 -4.354270
v 14.711779 4.000000 -2.926355
v 14.927771 4.000000 -1.470257
v 15.000000 4.000000 0.000000
v 14.927771 4.000000 1.470257
v 14.711779 4.000000 2.926355
v 14.354105 4.000000 4.354270
v 13.858192 4.000000 5.740252
v 13.228819 4.000000 7.070951
v 12.472044 4.000000 8.333553
v 11.595157 4.000000 9.515900
v 10.606602 4.000000 10.606602
v 9.515900 4.000000 11.595157
v 8.333553 4.000000 12.472044
v 7.070951 4.000000 13.228819
v 5.740252 4.000000 13.858192
v 4.354270 4.000000 14.354105
v 2.926355 4.000000 14.711779
v 1.470257 4.000000 14.927771
v 0.000000 4.000000 15.000000
v -1.470257 4.000000 14.927771
v -2.926355 4.000000 14.711779
v -4.354270 4.000000 14.354105
v -5.740252 4.000000 13.858192
v -7.070951 4.000000 13.228819
v -8.333553 4.000000 12.472044
v -9.515900 4.000000 11.595157
v -10.606602 4.000000 10.606602
v -11.595157 4.000000 9.515900
v -12.472044 4.000000 8.333553
v -13.228819 4.000000 7.070951
v -13.858192 4.000000 5.740252
v -14.354105 4.000000 4.354270
v -14.711779 4.000000 2.926355
v -14.927771 4.000000 1.470257
v -15.000000 4.000000 0.000000
v -14.927771 4.000000 -1.470257
v -14.711779 4.000000 -2.926355
v -14.354105 4.000000 -4.354270
v -13.858192 4.000000 -5.740252
v -13.228819 4.000000 -7.070951
v -12.472044 4.000000 -8.333553
v -11.595157 4.000000 -9.515900
v -10.606602 4.000000 -10.606602
v -9.515900 4.000000 -11.595157
v -8.333553 4.000000 -12.472044
v -7.070951 4.000000 -13.228819
v -5.740252 4.000000 -13.858192
v -4.354270 4.000000 -14.354105
v -2.926355 4.000000 -14.711779
v -1.470257 4.000000 -14.927771
v 1.470257 6.000000 -14.927771
v 0.000000 6.000000 -15.000000
v 2.926355 6.000000 -14.711779
v 4.354270 6.000000 -14.354105
v 5.740252 6.000000 -13.858192
v 7.070951 6.000000 -13.228819
v 8.333553 6.000000 -12.472044
v 9.515900 6.000000 -11.595157
v 10.606602 6.000000 -10.606602
v 11.595157 6.000000 -9.515900
v 12.472044 6.000000 -8.333553
v 13.228819 6.000000 -7.070951
v 13.858192 6.000000 -5.740252
v 14.354105 6.000000 -4.354270
v 14.711779 6.000000 -2.926355
v 14.927771 6.000000 -1.470257
v 15.000000 6.000000 0.000000
v 14.927771 6.000000 1.470257
v 14.711779 6.000000 2.926355
v 14.354105 6.000000 4.354270
v 13.858192 6.000000 5.740252
v 13.228819 6.000000 7.070951
v 12.472044 6.000000 8.333553
v 11.595157 6.000000 9.515900
v 10.606602 6.000000 10.606602
v 9.515900 6.000000 11.595157
v 8.333553 6.000000 12.472044
v 7.070951 6.000000 13.228819
v 5.740252 6.000000 13.858192
v 4.354270 6.000000 14.354105
v 2.926355 6.000000 14.711779
v 1.470257 6.000000 14.927771
v 0.000000 6.000000 15.000000
v -1.470257 6.000000 14.927771
v -2.926355 6.000000 14.711779
v -4.354270 6.000000 14.354105
v -5.740252 6.000000 13.858192
v -7.070951 6.000000 13.228819
v -8.333553 6.000000 12.472044
v -9.515900 6.000000 11.595157
v -10.606602 6.000000 10.606602
v -11.595157 6.000000 9.515900
v -12.472044 6.000000 8.333553
v -13.228819 6.000000 7.070951
v -13.858192 6.000000 5.740252
v -14.354105 6.000000 4.354270
v -14.711779 6.000000 2.926355
v -14.927771 6.000000 1.470257
v -15.000000 6.000000 0.000000
v -14.927771 6.000000 -1.470257
v -14.711779 6.000000 -2.926355
v -14.354105 6.000000 -4.354270
v -13.858192 6.000000 -5.740252
v -13.228819 6.000000 -7.070951
v -12.472044 6.000000 -8.333553
v -11.595157 6.000000 -9.515900
v -10.606602 6.000000 -10.606602
v -9.515900 6.000000 -11.595157
v -8.333553 6.000000 -12.472044
v -7.070951 6.000000 -13.228819
v -5.740252 6.000000 -13.858192
v -4.354270 6.000000 -14.354105
v -2.926355 6.000000 -14.711779
v -1.470257 6.000000 -14.927771
vn 0.3369 -0.0000 -0.9415
vn -0.0000 1.0000 -0.0000
vn -0.6716 -0.0000 -0.7410
vn 0.1467 -0.0000 0.9892
vn 0.4276 -0.0000 -0.9040
vn -0.5957 -0.0000 -0.8032
vn 0.0491 -0.0000 0.9988
vn 0.5141 -0.0000 -0.8577
vn -0.5141 -0.0000 -0.8577
vn -0.0491 -0.0000 0.9988
vn 0.5957 -0.0000 -0.8032
vn -0.4276 -0.0000 -0.9040
vn -0.1467 -0.0000 0.9892
vn 0.6716 -0.0000 -0.7410
vn -0.3369 -0.0000 -0.9415
vn -0.2430 -0.0000 0.9700
vn 0.7410 -0.0000 -0.6716
vn -0.2430 -0.0000 -0.9700
vn -0.3369 -0.0000 0.9415
vn 0.8032 -0.0000 -0.5957
vn -0.1467 -0.0000 -0.9892
vn -0.4276 -0.0000 0.9040
vn 0.8577 -0.0000 -0.5141
vn -0.0491 -0.0000 -0.9988
vn -0.5141 -0.0000 0.8577
vn 0.9040 -0.0000 -0.4276
vn -0.5957 -0.0000 0.8032
vn 0.9415 -0.0000 -0.3369
vn -0.6716 -0.0000 0.7410
vn 0.9700 -0.0000 -0.2430
vn -0.7410 -0.0000 0.6716
vn 0.9892 -0.0000 -0.1467
vn -0.8032 -0.0000 0.5957
vn 0.9988 -0.0000 -0.0491
vn -0.8577 -0.0000 0.5141
vn 0.9988 -0.0000 0.0491
vn -0.9040 -0.0000 0.4276
vn 0.9892 -0.0000 0.1467
vn -0.9415 -0.0000 0.3369
vn 0.9700 -0.0000 0.2430
vn -0.9700 -0.0000 0.2430
vn 0.9415 -0.0000 0.3369
vn -0.9892 -0.0000 0.1467
vn 0.9040 -0.0000 0.4276
vn -0.9988 -0.0000 0.0491
vn 0.8577 -0.0000 0.5141
vn -0.9988 -0.0000 -0.0491
vn 0.8032 -0.0000 0.5957
vn -0.9892 -0.0000 -0.1467
vn 0.7410 -0.0000 0.6716
vn -0.9700 -0.0000 -0.2430
vn 0.6716 -0.0000 0.7410
vn -0.9415 -0.0000 -0.3369
vn 0.5957 -0.0000 0.8032
vn -0.9040 -0.0000 -0.4276
vn 0.5141 -0.0000 0.8577
vn 0.0491 -0.0000 -0.9988
vn -0.8577 -0.0000 -0.5141
vn 0.4276 -0.0000 0.9040
vn 0.1467 -0.0000 -0.9892
vn -0.8032 -0.0000 -0.5957
vn 0.3369 -0.0000 0.9415
vn 0.2430 -0.0000 -0.9700
vn -0.7410 -0.0000 -0.6716
vn 0.2430 -0.0000 0.9700
vn -0.0000 -1.0000 -0.0000
vt 0.937500 1.000000
vt 0.953125 1.000000
vt 0.273524 0.488844
vt 0.250000 0.490000
vt 0.226476 0.488844
vt 0.203178 0.485388
vt 0.180332 0.479666
vt 0.158156 0.471731
vt 0.136865 0.461661
vt 0.116663 0.449553
vt 0.097746 0.435522
vt 0.080294 0.419706
vt 0.064478 0.402254
vt 0.050447 0.383337
vt 0.038339 0.363135
vt 0.028269 0.341844
vt 0.020334 0.319668
vt 0.014612 0.296822
vt 0.011156 0.273524
vt 0.010000 0.250000
vt 0.011156 0.226476
vt 0.014612 0.203178
vt 0.020334 0.180332
vt 0.028269 0.158156
vt 0.038339 0.136865
vt 0.050447 0.116663
vt 0.064478 0.097746
vt 0.080294 0.080294
vt 0.097746 0.064478
vt 0.116663 0.050447
vt 0.136865 0.038339
vt 0.158156 0.028269
vt 0.180332 0.020334
vt 0.203178 0.014612
vt 0.226476 0.011156
vt 0.250000 0.010000
vt 0.273524 0.011156
vt 0.296822 0.014612
vt 0.319668 0.020334
vt 0.341844 0.028269
vt 0.363135 0.038339
vt 0.383337 0.050447
vt 0.402254 0.064478
vt 0.419706 0.080294
vt 0.435522 0.097746
vt 0.449553 0.116663
vt 0.461661 0.136865
vt 0.471731 0.158156
vt 0.479666 0.180332
vt 0.485388 0.203178
vt 0.488844 0.226476
vt 0.490000 0.250000
vt 0.488844 0.273524
vt 0.485388 0.296822
vt 0.479666 0.319668
vt 0.471731 0.341844
vt 0.461661 0.363135
vt 0.449553 0.383337
vt 0.435522 0.402254
vt 0.419706 0.419706
vt 0.402254 0.435522
vt 0.383337 0.449553
vt 0.363135 0.461661
vt 0.341844 0.471731
vt 0.319668 0.479666
vt 0.296822 0.485388
vt 0.109375 1.000000
vt 0.125000 1.000000
vt 0.515625 1.000000
vt 0.531250 1.000000
vt 0.921875 1.000000
vt 0.093750 1.000000
vt 0.500000 1.000000
vt 0.906250 1.000000
vt 0.078125 1.000000
vt 0.484375 1.000000
vt 0.890625 1.000000
vt 0.062500 1.000000
vt 0.468750 1.000000
vt 0.875000 1.000000
vt 0.046875 1.000000
vt 0.453125 1.000000
vt 0.859375 1.000000
vt 0.031250 1.000000
vt 0.437500 1.000000
vt 0.843750 1.000000
vt 0.015625 1.000000
vt 0.421875 1.000000
vt 0.828125 1.000000
vt 0.000000 1.000000
vt 0.406250 1.000000
vt 0.812500 1.000000
vt 0.390625 1.000000
vt 0.796875 1.000000
vt 0.375000 1.000000
vt 0.781250 1.000000
vt 0.359375 1.000000
vt 0.765625 1.000000
vt 0.343750 1.000000
vt 0.750000 1.000000
vt 0.328125 1.000000
vt 0.734375 1.000000
vt 0.312500 1.000000
vt 0.718750 1.000000
vt 0.296875 1.000000
vt 0.703125 1.000000
vt 0.281250 1.000000
vt 0.687500 1.000000
vt 0.265625 1.000000
vt 0.671875 1.000000
vt 0.250000 1.000000
vt 0.656250 1.000000
vt 0.234375 1.000000
vt 0.640625 1.000000
vt 0.218750 1.000000
vt 0.625000 1.000000
vt 0.203125 1.000000
vt 0.609375 1.000000
vt 0.187500 1.000000
vt 0.593750 1.000000
vt 0.171875 1.000000
vt 0.578125 1.000000
vt 0.984375 1.000000
vt 1.000000 1.000000
vt 0.156250 1.000000
vt 0.562500 1.000000
vt 0.968750 1.000000
vt 0.140625 1.000000
vt 0.546875 1.000000
s 0
f 5/1/1 4/2/1 68/2/1 69/1/1
f 65/3/2 66/4/2 128/5/2 127/6/2 126/7/2 125/8/2 124/9/2 123/10/2 122/11/2 121/12/2 120/13/2 119/14/2 118/15/2 117/16/2 116/17/2 115/18/2 114/19/2 113/20/2 112/21/2 111/22/2 110/23/2 109/24/2 108/25/2 107/26/2 106/27/2 105/28/2 104/29/2 103/30/2 102/31/2 101/32/2 100/33/2 99/34/2 98/35/2 97/36/2 96/37/2 95/38/2 94/39/2 93/40/2 92/41/2 91/42/2 90/43/2 89/44/2 88/45/2 87/46/2 86/47/2 85/48/2 84/49/2 83/50/2 82/51/2 81/52/2 80/53/2 79/54/2 78/55/2 77/56/2 76/57/2 75/58/2 74/59/2 73/60/2 72/61/2 71/62/2 70/63/2 69/64/2 68/65/2 67/66/2
f 58/67/3 57/68/3 121/68/3 122/67/3
f 32/69/4 31/70/4 95/70/4 96/69/4
f 6/71/5 5/1/5 69/1/5 70/71/5
f 59/72/6 58/67/6 122/67/6 123/72/6
f 33/73/7 32/69/7 96/69/7 97/73/7
f 7/74/8 6/71/8 70/71/8 71/74/8
f 60/75/9 59/72/9 123/72/9 124/75/9
f 34/76/10 33/73/10 97/73/10 98/76/10
f 8/77/11 7/74/11 71/74/11 72/77/11
f 61/78/12 60/75/12 124/75/12 125/78/12
f 35/79/13 34/76/13 98/76/13 99/79/13
f 9/80/14 8/77/14 72/77/14 73/80/14
f 62/81/15 61/78/15 125/78/15 126/81/15
f 36/82/16 35/79/16 99/79/16 100/82/16
f 10/83/17 9/80/17 73/80/17 74/83/17
f 63/84/18 62/81/18 126/81/18 127/84/18
f 37/85/19 36/82/19 100/82/19 101/85/19
f 11/86/20 10/83/20 74/83/20 75/86/20
f 64/87/21 63/84/21 127/84/21 128/87/21
f 38/88/22 37/85/22 101/85/22 102/88/22
f 12/89/23 11/86/23 75/86/23 76/89/23
f 1/90/24 64/87/24 128/87/24 66/90/24
f 39/91/25 38/88/25 102/88/25 103/91/25
f 13/92/26 12/89/26 76/89/26 77/92/26
f 40/93/27 39/91/27 103/91/27 104/93/27
f 14/94/28 13/92/28 77/92/28 78/94/28
f 41/95/29 40/93/29 104/93/29 105/95/29
f 15/96/30 14/94/30 78/94/30 79/96/30
f 42/97/31 41/95/31 105/95/31 106/97/31
f 16/98/32 15/96/32 79/96/32 80/98/32
f 43/99/33 42/97/33 106/97/33 107/99/33
f 17/100/34 16/98/34 80/98/34 81/100/34
f 44/101/35 43/99/35 107/99/35 108/101/35
f 18/102/36 17/100/36 81/100/36 82/102/36
f 45/103/37 44/101/37 108/101/37 109/103/37
f 19/104/38 18/102/38 82/102/38 83/104/38
f 46/105/39 45/103/39 109/103/39 110/105/39
f 20/106/40 19/104/40 83/104/40 84/106/40
f 47/107/41 46/105/41 110/105/41 111/107/41
f 21/108/42 20/106/42 84/106/42 85/108/42
f 48/109/43 47/107/43 111/107/43 112/109/43
f 22/110/44 21/108/44 85/108/44 86/110/44
f 49/111/45 48/109/45 112/109/45 113/111/45
f 23/112/46 22/110/46 86/110/46 87/112/46
f 50/113/47 49/111/47 113/111/47 114/113/47
f 24/114/48 23/112/48 87/112/48 88/114/48
f 51/115/49 50/113/49 114/113/49 115/115/49
f 25/116/50 24/114/50 88/114/50 89/116/50
f 52/117/51 51/115/51 115/115/51 116/117/51
f 26/118/52 25/116/52 89/116/52 90/118/52
f 53/119/53 52/117/53 116/117/53 117/119/53
f 27/120/54 26/118/54 90/118/54 91/120/54
f 54/121/55 53/119/55 117/119/55 118/121/55
f 28/122/56 27/120/56 91/120/56 92/122/56
f 2/123/57 1/124/57 66/124/57 65/123/57
f 55/125/58 54/121/58 118/121/58 119/125/58
f 29/126/59 28/122/59 92/122/59 93/126/59
f 3/127/60 2/123/60 65/123/60 67/127/60
f 56/128/61 55/125/61 119/125/61 120/128/61
f 30/129/62 29/126/62 93/126/62 94/129/62
f 4/2/63 3/127/63 67/127/63 68/2/63
f 57/68/64 56/128/64 120/128/64 121/68/64
f 31/70/65 30/129/65 94/129/65 95/70/65
f 2/123/66 3/127/66 4/2/66 5/1/66 6/71/66 7/74/66 8/77/66 9/80/66 10/83/66 11/86/66 12/89/66 13/92/66 14/94/66 15/96/66 16/98/66 17/100/66 18/102/66 19/104/66 20/106/66 21/108/66 22/110/66 23/112/66 24/114/66 25/116/66 26/118/66 27/120/66 28/122/66 29/126/66 30/129/66 31/70/66 32/69/66 33/73/66 34/76/66 35/79/66 36/82/66 37/85/66 38/88/66 39/91/66 40/93/66 41/95/66 42/97/66 43/99/66 44/101/66 45/103/66 46/105/66 47/107/66 48/109/66 49/111/66 50/113/66 51/115/66 52/117/66 53/119/66 54/121/66 55/125/66 56/128/66 57/68/66 58/67/66 59/72/66 60/75/66 61/78/66 62/81/66 63/84/66 64/87/66 1/90/66
o Cylinder.006
v -9.000000 6.000000 9.000000
v -9.000000 7.000000 9.000000
v -9.000000 6.000000 -9.000000
v -9.000000 7.000000 -9.000000
v 9.000000 6.000000 9.000000
v 9.000000 7.000000 9.000000
v 9.000000 6.000000 -9.000000
v 9.000000 7.000000 -9.000000
vn -0.0000 1.0000 -0.0000
vn -0.0000 -1.0000 -0.0000
vn -1.0000 -0.0000 -0.0000
vn -0.0000 -0.0000 -1.0000
vn 1.0000 -0.0000 -0.0000
vn -0.0000 -0.0000 1.0000
vt 0.625000 1.000000
vt 0.625000 0.750000
vt 0.625000 0.500000
vt 0.625000 0.250000
vt 0.375000 0.250000
vt 0.375000 0.500000
vt 0.375000 0.750000
vt 0.375000 1.000000
vt 0.375000 0.000000
vt 0.625000 0.000000
s 0
f 130/130/67 134/131/67 136/132/67 132/133/67
f 131/134/68 135/135/68 133/136/68 129/137/68
f 129/138/69 130/139/69 132/133/69 131/134/69
f 131/134/70 132/133/70 136/132/70 135/135/70
f 135/135/71 136/132/71 134/131/71 133/136/71
f 133/136/72 134/131/72 130/130/72 129/137/72
o Cylinder.007
v -9.000000 7.000000 9.000000
v -9.000000 7.000000 -9.000000
v 9.000000 7.000000 9.000000
v 9.000000 7.000000 -9.000000
v -9.000000 11.000000 13.000000
v -9.000000 11.000000 -5.000000
v 9.000000 11.000000 -5.000000
v 9.000000 11.000000 13.000000
vn 1.0000 -0.0000 -0.0000
vn -0.0000 1.0000 -0.0000
vn -1.0000 -0.0000 -0.0000
vn -0.0000 -0.7071 0.7071
vn -0.0000 0.7071 -0.7071
vn -0.0000 -1.0000 -0.0000
vt 0.625000 0.750000
vt 0.625000 0.500000
vt 0.875000 0.500000
vt 0.875000 0.750000
vt 0.625000 0.250000
vt 0.625000 0.000000
s 0
f 139/140/73 140/141/73 143/141/73 144/140/73
f 143/141/74 142/142/74 141/143/74 144/140/74
f 138/144/75 137/145/75 141/145/75 142/144/75
f 137/145/76 139/140/76 144/140/76 141/143/76
f 140/141/77 138/144/77 142/144/77 143/141/77
f 137/145/78 138/144/78 140/141/78 139/140/78
o Cylinder.008
v 4.500000 11.000000 12.000000
v 4.500000 11.000000 -4.000000
v 7.500000 11.000000 12.000000
v 7.500000 11.000000 -4.000000
v 4.500000 14.000000 12.000000
v 4.500000 14.000000 -4.000000
v 7.500000 14.000000 -4.000000
v 7.500000 14.000000 12.000000
v 7.500000 14.000000 -4.000000
v 7.500000 14.000000 12.000000
v 4.500000 14.000000 12.000000
v 4.500000 14.000000 -4.000000
vn -0.0000 1.0000 -0.0000
vn -1.0000 -0.0000 -0.0000
vn -0.0000 -0.0000 -1.0000
vn -0.0000 -0.0000 1.0000
vn 1.0000 -0.0000 -0.0000
vn -0.0000 -1.0000 -0.0000
vt 0.625000 1.000000
vt 0.625000 0.750000
vt 0.625000 0.750000
vt 0.625000 0.500000
vt 0.625000 0.250000
vt 0.000000 0.000000
s 0
f 155/146/79 154/147/79 152/148/79 149/146/79
f 153/149/79 156/150/79 150/150/79 151/149/79
f 153/151/79 156/151/79 155/151/79 154/151/79 152/151/79 151/151/79
f 146/150/80 145/146/80 149/151/80 150/151/80
f 148/149/81 146/150/81 156/150/81 153/149/81
f 145/146/82 147/148/82 154/147/82 155/146/82
f 153/149/83 151/149/83 152/148/83 154/147/83 147/148/83 148/149/83
f 146/150/84 148/149/84 147/148/84 145/146/84
o Cylinder.009
v -7.500000 11.000000 12.000000
v -7.500000 11.000000 -4.000000
v -4.500000 11.000000 12.000000
v -4.500000 11.000000 -4.000000
v -7.500000 14.000000 12.000000
v -7.500000 14.000000 -4.000000
v -4.500000 14.000000 -4.000000
v -4.500000 14.000000 12.000000
v -4.500000 14.000000 -4.000000
v -4.500000 14.000000 12.000000
v -7.500000 14.000000 12.000000
v -7.500000 14.000000 -4.000000
vn -0.0000 -0.0000 -1.0000
vn -0.0000 -0.0000 1.0000
vn 1.0000 -0.0000 -0.0000
vn -0.0000 -1.0000 -0.0000
vn -1.0000 -0.0000 -0.0000
vn -0.0000 1.0000 -0.0000
vt 0.625000 0.250000
vt 0.625000 0.500000
vt 0.625000 0.750000
vt 0.625000 0.750000
vt 0.625000 1.000000
s 0
f 168/152/85 162/152/85 163/153/85 165/153/85 160/153/85 158/152/85
f 166/154/86 164/155/86 161/156/86 167/156/86 157/156/86 159/155/86
f 165/153/87 163/153/87 164/155/87 166/154/87 159/155/87 160/153/87
f 158/152/88 160/153/88 159/155/88 157/156/88
f 167/156/89 161/156/89 162/152/89 168/152/89 158/152/89 157/156/89
f 162/152/90 161/156/90 164/155/90 163/153/90
o Cylinder.010
v -7.500000 14.000000 12.000000
v -7.500000 14.000000 -4.000000
v -4.500000 14.000000 -4.000000
v -4.500000 14.000000 12.000000
v -7.500000 19.000000 6.666667
v -7.500000 19.000000 1.333333
v -4.500000 19.000000 1.333333
v -4.500000 19.000000 6.666667
v -4.500000 14.000000 -4.000000
v -7.500000 14.000000 12.000000
v -7.500000 14.000000 -4.000000
v -7.500000 14.000000 1.333333
v -7.500000 14.000000 6.666667
v -4.500000 14.000000 6.666667
v -4.500000 14.000000 1.333333
vn 1.0000 -0.0000 -0.0000
vn -0.0000 -1.0000 -0.0000
vn -1.0000 -0.0000 -0.0000
vn -0.0000 0.7295 -0.6839
vn -0.0000 1.0000 -0.0000
vn -0.0000 0.7295 0.6839
vt 0.625000 0.583333
vt 0.625000 0.500000
vt 0.625000 0.083333
vt 0.625000 0.166667
vt 0.625000 0.666667
vt 0.000000 0.000000
vt 0.625000 0.250000
vt 0.625000 0.166667
vt 0.625000 0.083333
vt 0.875000 0.500000
vt 0.875000 0.583333
vt 0.875000 0.666667
s 0
f 183/157/91 177/158/91 171/158/91 175/157/91
f 181/159/92 180/160/92 183/157/92 182/161/92
f 172/162/91 182/161/91 176/161/91
f 179/163/93 180/160/93 174/164/93 170/163/93
f 180/160/93 181/159/93 173/165/93 174/164/93
f 171/158/94 170/166/94 174/167/94 175/157/94
f 175/157/95 174/167/95 173/168/95 176/161/95
f 181/159/93 178/162/93 173/165/93
f 182/161/91 183/157/91 175/157/91 176/161/91
f 170/163/92 171/158/92 177/158/92 183/157/92 180/160/92 179/163/92
f 172/162/96 176/161/96 173/168/96 169/162/96
f 172/162/92 169/162/92 181/162/92 182/161/92
o Cylinder.011
v 4.500000 14.000000 12.000000
v 4.500000 14.000000 -4.000000
v 7.500000 14.000000 -4.000000
v 7.500000 14.000000 12.000000
v 4.500000 19.000000 6.666667
v 4.500000 19.000000 1.333333
v 7.500000 19.000000 1.333333
v 7.500000 19.000000 6.666667
v 7.500000 14.000000 -4.000000
v 4.500000 14.000000 -4.000000
v 4.500000 14.000000 1.333333
v 4.500000 14.000000 6.666667
v 7.500000 14.000000 6.666667
v 7.500000 14.000000 1.333333
vn 1.0000 -0.0000 -0.0000
vn -1.0000 -0.0000 -0.0000
vn -0.0000 0.7295 -0.6839
vn -0.0000 1.0000 -0.0000
vn -0.0000 0.7295 0.6839
vn -0.0000 -1.0000 -0.0000
vt 0.625000 0.583333
vt 0.625000 0.500000
vt 0.625000 0.083333
vt 0.000000 0.000000
vt 0.625000 0.083333
vt 0.625000 0.250000
vt 0.625000 0.166667
vt 0.625000 0.166667
vt 0.875000 0.500000
vt 0.875000 0.583333
vt 0.875000 0.666667
vt 0.625000 0.666667
s 0
f 197/169/97 192/170/97 186/170/97 190/169/97
f 195/171/98 184/172/98 188/173/98
f 193/174/98 194/175/98 189/176/98 185/174/98
f 194/175/98 195/171/98 188/173/98 189/176/98
f 186/170/99 185/177/99 189/178/99 190/169/99
f 190/169/100 189/178/100 188/179/100 191/180/100
f 196/180/97 197/169/97 190/169/97 191/180/97
f 187/172/101 191/180/101 188/179/101 184/172/101
f 191/180/97 187/172/97 196/180/97
f 187/172/102 184/172/102 195/171/102 196/180/102
f 197/169/102 196/180/102 195/171/102 194/175/102
f 185/177/102 186/170/102 197/169/102 194/175/102
o Cylinder.012
v -8.250000 16.500000 2.500000
v 8.250000 16.500000 2.500000
v -8.250000 16.352974 2.507223
v 8.250000 16.352974 2.507223
v -8.250000 16.207365 2.528822
v 8.250000 16.207365 2.528822
v -8.250000 16.064573 2.564590
v 8.250000 16.064573 2.564590
v -8.250000 15.925975 2.614181
v 8.250000 15.925975 2.614181
v -8.250000 15.792905 2.677118
v 8.250000 15.792905 2.677118
v -8.250000 15.666645 2.752796
v 8.250000 15.666644 2.752796
v -8.250000 15.548410 2.840484
v 8.250000 15.548409 2.840484
v -8.250000 15.439341 2.939340
v 8.250000 15.439340 2.939340
v -8.250000 15.340485 3.048410
v 8.250000 15.340484 3.048410
v -8.250000 15.252796 3.166645
v 8.250000 15.252795 3.166645
v -8.250000 15.177118 3.292905
v 8.250000 15.177118 3.292905
v -8.250000 15.114182 3.425975
v 8.250000 15.114181 3.425975
v -8.250000 15.064590 3.564573
v 8.250000 15.064590 3.564573
v -8.250000 15.028823 3.707365
v 8.250000 15.028822 3.707365
v -8.250000 15.007223 3.852974
v 8.250000 15.007222 3.852974
v -8.250000 15.000000 4.000000
v 8.250000 15.000000 4.000000
v -8.250000 15.007223 4.147026
v 8.250000 15.007222 4.147026
v -8.250000 15.028823 4.292635
v 8.250000 15.028822 4.292635
v -8.250000 15.064590 4.435427
v 8.250000 15.064590 4.435427
v -8.250000 15.114182 4.574025
v 8.250000 15.114181 4.574025
v -8.250000 15.177118 4.707095
v 8.250000 15.177118 4.707095
v -8.250000 15.252796 4.833355
v 8.250000 15.252795 4.833355
v -8.250000 15.340485 4.951590
v 8.250000 15.340484 4.951590
v -8.250000 15.439341 5.060660
v 8.250000 15.439340 5.060660
v -8.250000 15.548410 5.159515
v 8.250000 15.548409 5.159515
v -8.250000 15.666645 5.247204
v 8.250000 15.666644 5.247204
v -8.250000 15.792905 5.322882
v 8.250000 15.792905 5.322882
v -8.250000 15.925975 5.385819
v 8.250000 15.925975 5.385819
v -8.250000 16.064573 5.435410
v 8.250000 16.064573 5.435410
v -8.250000 16.207365 5.471178
v 8.250000 16.207365 5.471178
v -8.250000 16.352974 5.492777
v 8.250000 16.352974 5.492777
v -8.250000 16.500000 5.500000
v 8.250000 16.500000 5.500000
v -8.250000 16.647026 5.492777
v 8.250000 16.647026 5.492777
v -8.250000 16.792635 5.471178
v 8.250000 16.792635 5.471178
v -8.250000 16.935427 5.435410
v 8.250000 16.935427 5.435410
v -8.250000 17.074026 5.385819
v 8.250000 17.074024 5.385819
v -8.250000 17.207096 5.322882
v 8.250000 17.207094 5.322882
v -8.250000 17.333355 5.247204
v 8.250000 17.333355 5.247204
v -8.250000 17.451590 5.159515
v 8.250000 17.451590 5.159515
v -8.250000 17.560661 5.060660
v 8.250000 17.560659 5.060660
v -8.250000 17.659515 4.951590
v 8.250000 17.659515 4.951590
v -8.250000 17.747204 4.833355
v 8.250000 17.747204 4.833355
v -8.250000 17.822882 4.707095
v 8.250000 17.822882 4.707095
v -8.250000 17.885820 4.574025
v 8.250000 17.885818 4.574025
v -8.250000 17.935411 4.435427
v 8.250000 17.935410 4.435427
v -8.250000 17.971178 4.292635
v 8.250000 17.971178 4.292635
v -8.250000 17.992777 4.147026
v 8.250000 17.992777 4.147026
v -8.250000 18.000000 4.000000
v 8.250000 18.000000 4.000000
v -8.250000 17.992777 3.852974
v 8.250000 17.992777 3.852974
v -8.250000 17.971178 3.707365
v 8.250000 17.971178 3.707365
v -8.250000 17.935411 3.564573
v 8.250000 17.935410 3.564573
v -8.250000 17.885820 3.425975
v 8.250000 17.885818 3.425975
v -8.250000 17.822882 3.292905
v 8.250000 17.822882 3.292905
v -8.250000 17.747204 3.166645
v 8.250000 17.747204 3.166645
v -8.250000 17.659515 3.048410
v 8.250000 17.659515 3.048410
v -8.250000 17.560661 2.939340
v 8.250000 17.560659 2.939340
v -8.250000 17.451590 2.840484
v 8.250000 17.451590 2.840484
v -8.250000 17.333355 2.752796
v 8.250000 17.333355 2.752796
v -8.250000 17.207096 2.677118
v 8.250000 17.207094 2.677118
v -8.250000 17.074026 2.614181
v 8.250000 17.074024 2.614181
v -8.250000 16.935427 2.564590
v 8.250000 16.935427 2.564590
v -8.250000 16.792635 2.528822
v 8.250000 16.792635 2.528822
v -8.250000 16.647026 2.507223
v 8.250000 16.647026 2.507223
vn -0.0000 -0.0491 -0.9988
vn -0.0000 -0.1467 -0.9892
vn -0.0000 -0.2430 -0.9700
vn -0.0000 -0.3369 -0.9415
vn -0.0000 -0.4276 -0.9040
vn -0.0000 -0.5141 -0.8577
vn -0.0000 -0.5957 -0.8032
vn -0.0000 -0.6716 -0.7410
vn -0.0000 -0.7409 -0.6716
vn -0.0000 -0.8032 -0.5957
vn -0.0000 -0.8577 -0.5141
vn -0.0000 -0.9040 -0.4276
vn -0.0000 -0.9415 -0.3369
vn -0.0000 -0.9700 -0.2430
vn -0.0000 -0.9892 -0.1467
vn -0.0000 -0.9988 -0.0491
vn -0.0000 -0.9988 0.0491
vn -0.0000 -0.9892 0.1467
vn -0.0000 -0.9700 0.2430
vn -0.0000 -0.9415 0.3369
vn -0.0000 -0.9040 0.4276
vn -0.0000 -0.8577 0.5141
vn -0.0000 -0.8032 0.5957
vn -0.0000 -0.7409 0.6716
vn -0.0000 -0.6716 0.7410
vn -0.0000 -0.5957 0.8032
vn -0.0000 -0.5141 0.8577
vn -0.0000 -0.4276 0.9040
vn -0.0000 -0.3369 0.9415
vn -0.0000 -0.2430 0.9700
vn -0.0000 -0.1467 0.9892
vn -0.0000 -0.0491 0.9988
vn -0.0000 0.0491 0.9988
vn -0.0000 0.1467 0.9892
vn -0.0000 0.2430 0.9700
vn -0.0000 0.3369 0.9415
vn -0.0000 0.4276 0.9040
vn -0.0000 0.5141 0.8577
vn -0.0000 0.5957 0.8032
vn -0.0000 0.6716 0.7410
vn -0.0000 0.7410 0.6716
vn -0.0000 0.8032 0.5957
vn -0.0000 0.8577 0.5141
vn -0.0000 0.9040 0.4276
vn -0.0000 0.9415 0.3369
vn -0.0000 0.9700 0.2430
vn -0.0000 0.9892 0.1467
vn -0.0000 0.9988 0.0491
vn -0.0000 0.9988 -0.0491
vn -0.0000 0.9892 -0.1467
vn -0.0000 0.9700 -0.2430
vn -0.0000 0.9415 -0.3369
vn -0.0000 0.9040 -0.4276
vn -0.0000 0.8577 -0.5141
vn -0.0000 0.8032 -0.5957
vn -0.0000 0.7410 -0.6716
vn -0.0000 0.6716 -0.7410
vn -0.0000 0.5957 -0.8032
vn -0.0000 0.5141 -0.8577
vn -0.0000 0.4276 -0.9040
vn -0.0000 0.3369 -0.9415
vn -0.0000 0.2430 -0.9700
vn 1.0000 -0.0000 -0.0000
vn -0.0000 0.1467 -0.9892
vn -0.0000 0.0491 -0.9988
vn -1.0000 -0.0000 -0.0000
vt 1.000000 0.500000
vt 1.000000 1.000000
vt 0.984375 1.000000
vt 0.984375 0.500000
vt 0.968750 1.000000
vt 0.968750 0.500000
vt 0.953125 1.000000
vt 0.953125 0.500000
vt 0.937500 1.000000
vt 0.937500 0.500000
vt 0.921875 1.000000
vt 0.921875 0.500000
vt 0.906250 1.000000
vt 0.906250 0.500000
vt 0.890625 1.000000
vt 0.890625 0.500000
vt 0.875000 1.000000
vt 0.875000 0.500000
vt 0.859375 1.000000
vt 0.859375 0.500000
vt 0.843750 1.000000
vt 0.843750 0.500000
vt 0.828125 1.000000
vt 0.828125 0.500000
vt 0.812500 1.000000
vt 0.812500 0.500000
vt 0.796875 1.000000
vt 0.796875 0.500000
vt 0.781250 1.000000
vt 0.781250 0.500000
vt 0.765625 1.000000
vt 0.765625 0.500000
vt 0.750000 1.000000
vt 0.750000 0.500000
vt 0.734375 1.000000
vt 0.734375 0.500000
vt 0.718750 1.000000
vt 0.718750 0.500000
vt 0.703125 1.000000
vt 0.703125 0.500000
vt 0.687500 1.000000
vt 0.687500 0.500000
vt 0.671875 1.000000
vt 0.671875 0.500000
vt 0.656250 1.000000
vt 0.656250 0.500000
vt 0.640625 1.000000
vt 0.640625 0.500000
vt 0.625000 1.000000
vt 0.625000 0.500000
vt 0.609375 1.000000
vt 0.609375 0.500000
vt 0.593750 1.000000
vt 0.593750 0.500000
vt 0.578125 1.000000
vt 0.578125 0.500000
vt 0.562500 1.000000
vt 0.562500 0.500000
vt 0.546875 1.000000
vt 0.546875 0.500000
vt 0.531250 1.000000
vt 0.531250 0.500000
vt 0.515625 1.000000
vt 0.515625 0.500000
vt 0.500000 1.000000
vt 0.500000 0.500000
vt 0.484375 1.000000
vt 0.484375 0.500000
vt 0.468750 1.000000
vt 0.468750 0.500000
vt 0.453125 1.000000
vt 0.453125 0.500000
vt 0.437500 1.000000
vt 0.437500 0.500000
vt 0.421875 1.000000
vt 0.421875 0.500000
vt 0.406250 1.000000
vt 0.406250 0.500000
vt 0.390625 1.000000
vt 0.390625 0.500000
vt 0.375000 1.000000
vt 0.375000 0.500000
vt 0.359375 1.000000
vt 0.359375 0.500000
vt 0.343750 1.000000
vt 0.343750 0.500000
vt 0.328125 1.000000
vt 0.328125 0.500000
vt 0.312500 1.000000
vt 0.312500 0.500000
vt 0.296875 1.000000
vt 0.296875 0.500000
vt 0.281250 1.000000
vt 0.281250 0.500000
vt 0.265625 1.000000
vt 0.265625 0.500000
vt 0.250000 1.000000
vt 0.250000 0.500000
vt 0.234375 1.000000
vt 0.234375 0.500000
vt 0.218750 1.000000
vt 0.218750 0.500000
vt 0.203125 1.000000
vt 0.203125 0.500000
vt 0.187500 1.000000
vt 0.187500 0.500000
vt 0.171875 1.000000
vt 0.171875 0.500000
vt 0.156250 1.000000
vt 0.156250 0.500000
vt 0.140625 1.000000
vt 0.140625 0.500000
vt 0.125000 1.000000
vt 0.125000 0.500000
vt 0.109375 1.000000
vt 0.109375 0.500000
vt 0.093750 1.000000
vt 0.093750 0.500000
vt 0.078125 1.000000
vt 0.078125 0.500000
vt 0.062500 1.000000
vt 0.062500 0.500000
vt 0.046875 1.000000
vt 0.046875 0.500000
vt 0.031250 1.000000
vt 0.031250 0.500000
vt 0.273524 0.488844
vt 0.250000 0.490000
vt 0.226476 0.488844
vt 0.203178 0.485388
vt 0.180332 0.479666
vt 0.158156 0.471731
vt 0.136865 0.461661
vt 0.116663 0.449553
vt 0.097746 0.435522
vt 0.080294 0.419706
vt 0.064478 0.402254
vt 0.050447 0.383337
vt 0.038339 0.363135
vt 0.028269 0.341844
vt 0.020334 0.319668
vt 0.014612 0.296822
vt 0.011156 0.273524
vt 0.010000 0.250000
vt 0.011156 0.226476
vt 0.014612 0.203178
vt 0.020334 0.180332
vt 0.028269 0.158156
vt 0.038339 0.136865
vt 0.050447 0.116663
vt 0.064478 0.097746
vt 0.080294 0.080294
vt 0.097746 0.064478
vt 0.116663 0.050447
vt 0.136865 0.038339
vt 0.158156 0.028269
vt 0.180332 0.020334
vt 0.203178 0.014612
vt 0.226476 0.011156
vt 0.250000 0.010000
vt 0.273524 0.011156
vt 0.296822 0.014612
vt 0.319668 0.020334
vt 0.341844 0.028269
vt 0.363135 0.038339
vt 0.383337 0.050447
vt 0.402254 0.064478
vt 0.419706 0.080294
vt 0.435522 0.097746
vt 0.449553 0.116663
vt 0.461661 0.136865
vt 0.471731 0.158156
vt 0.479666 0.180332
vt 0.485388 0.203178
vt 0.488844 0.226476
vt 0.490000 0.250000
vt 0.488844 0.273524
vt 0.485388 0.296822
vt 0.479666 0.319668
vt 0.471731 0.341844
vt 0.461661 0.363135
vt 0.449553 0.383337
vt 0.435522 0.402254
vt 0.419706 0.419706
vt 0.402254 0.435522
vt 0.383337 0.449553
vt 0.363135 0.461661
vt 0.341844 0.471731
vt 0.319668 0.479666
vt 0.296822 0.485388
vt 0.015625 1.000000
vt 0.015625 0.500000
vt 0.000000 1.000000
vt 0.000000 0.500000
vt 0.750000 0.490000
vt 0.773524 0.488844
vt 0.796822 0.485388
vt 0.819668 0.479666
vt 0.841844 0.471731
vt 0.863135 0.461661
vt 0.883337 0.449553
vt 0.902254 0.435522
vt 0.919706 0.419706
vt 0.935522 0.402254
vt 0.949553 0.383337
vt 0.961661 0.363135
vt 0.971731 0.341844
vt 0.979666 0.319668
vt 0.985388 0.296822
vt 0.988844 0.273524
vt 0.990000 0.250000
vt 0.988844 0.226476
vt 0.985388 0.203178
vt 0.979666 0.180332
vt 0.971731 0.158156
vt 0.961661 0.136865
vt 0.949553 0.116663
vt 0.935522 0.097746
vt 0.919706 0.080294
vt 0.902254 0.064478
vt 0.883337 0.050447
vt 0.863135 0.038339
vt 0.841844 0.028269
vt 0.819668 0.020334
vt 0.796822 0.014612
vt 0.773524 0.011156
vt 0.750000 0.010000
vt 0.726476 0.011156
vt 0.703178 0.014612
vt 0.680332 0.020334
vt 0.658156 0.028269
vt 0.636865 0.038339
vt 0.616663 0.050447
vt 0.597746 0.064478
vt 0.580294 0.080294
vt 0.564478 0.097746
vt 0.550447 0.116663
vt 0.538339 0.136865
vt 0.528269 0.158156
vt 0.520334 0.180332
vt 0.514612 0.203178
vt 0.511156 0.226476
vt 0.510000 0.250000
vt 0.511156 0.273524
vt 0.514612 0.296822
vt 0.520334 0.319668
vt 0.528269 0.341844
vt 0.538339 0.363135
vt 0.550447 0.383337
vt 0.564478 0.402254
vt 0.580294 0.419706
vt 0.597746 0.435522
vt 0.616663 0.449553
vt 0.636865 0.461661
vt 0.658156 0.471731
vt 0.680332 0.479666
vt 0.703178 0.485388
vt 0.726476 0.488844
s 0
f 198/181/103 199/182/103 201/183/103 200/184/103
f 200/184/104 201/183/104 203/185/104 202/186/104
f 202/186/105 203/185/105 205/187/105 204/188/105
f 204/188/106 205/187/106 207/189/106 206/190/106
f 206/190/107 207/189/107 209/191/107 208/192/107
f 208/192/108 209/191/108 211/193/108 210/194/108
f 210/194/109 211/193/109 213/195/109 212/196/109
f 212/196/110 213/195/110 215/197/110 214/198/110
f 214/198/111 215/197/111 217/199/111 216/200/111
f 216/200/112 217/199/112 219/201/112 218/202/112
f 218/202/113 219/201/113 221/203/113 220/204/113
f 220/204/114 221/203/114 223/205/114 222/206/114
f 222/206/115 223/205/115 225/207/115 224/208/115
f 224/208/116 225/207/116 227/209/116 226/210/116
f 226/210/117 227/209/117 229/211/117 228/212/117
f 228/212/118 229/211/118 231/213/118 230/214/118
f 230/214/119 231/213/119 233/215/119 232/216/119
f 232/216/120 233/215/120 235/217/120 234/218/120
f 234/218/121 235/217/121 237/219/121 236/220/121
f 236/220/122 237/219/122 239/221/122 238/222/122
f 238/222/123 239/221/123 241/223/123 240/224/123
f 240/224/124 241/223/124 243/225/124 242/226/124
f 242/226/125 243/225/125 245/227/125 244/228/125
f 244/228/126 245/227/126 247/229/126 246/230/126
f 246/230/127 247/229/127 249/231/127 248/232/127
f 248/232/128 249/231/128 251/233/128 250/234/128
f 250/234/129 251/233/129 253/235/129 252/236/129
f 252/236/130 253/235/130 255/237/130 254/238/130
f 254/238/131 255/237/131 257/239/131 256/240/131
f 256/240/132 257/239/132 259/241/132 258/242/132
f 258/242/133 259/241/133 261/243/133 260/244/133
f 260/244/134 261/243/134 263/245/134 262/246/134
f 262/246/135 263/245/135 265/247/135 264/248/135
f 264/248/136 265/247/136 267/249/136 266/250/136
f 266/250/137 267/249/137 269/251/137 268/252/137
f 268/252/138 269/251/138 271/253/138 270/254/138
f 270/254/139 271/253/139 273/255/139 272/256/139
f 272/256/140 273/255/140 275/257/140 274/258/140
f 274/258/141 275/257/141 277/259/141 276/260/141
f 276/260/142 277/259/142 279/261/142 278/262/142
f 278/262/143 279/261/143 281/263/143 280/264/143
f 280/264/144 281/263/144 283/265/144 282/266/144
f 282/266/145 283/265/145 285/267/145 284/268/145
f 284/268/146 285/267/146 287/269/146 286/270/146
f 286/270/147 287/269/147 289/271/147 288/272/147
f 288/272/148 289/271/148 291/273/148 290/274/148
f 290/274/149 291/273/149 293/275/149 292/276/149
f 292/276/150 293/275/150 295/277/150 294/278/150
f 294/278/151 295/277/151 297/279/151 296/280/151
f 296/280/152 297/279/152 299/281/152 298/282/152
f 298/282/153 299/281/153 301/283/153 300/284/153
f 300/284/154 301/283/154 303/285/154 302/286/154
f 302/286/155 303/285/155 305/287/155 304/288/155
f 304/288/156 305/287/156 307/289/156 306/290/156
f 306/290/157 307/289/157 309/291/157 308/292/157
f 308/292/158 309/291/158 311/293/158 310/294/158
f 310/294/159 311/293/159 313/295/159 312/296/159
f 312/296/160 313/295/160 315/297/160 314/298/160
f 314/298/161 315/297/161 317/299/161 316/300/161
f 316/300/162 317/299/162 319/301/162 318/302/162
f 318/302/163 319/301/163 321/303/163 320/304/163
f 320/304/164 321/303/164 323/305/164 322/306/164
f 201/307/165 199/308/165 325/309/165 323/310/165 321/311/165 319/312/165 317/313/165 315/314/165 313/315/165 311/316/165 309/317/165 307/318/165 305/319/165 303/320/165 301/321/165 299/322/165 297/323/165 295/324/165 293/325/165 291/326/165 289/327/165 287/328/165 285/329/165 283/330/165 281/331/165 279/332/165 277/333/165 275/334/165 273/335/165 271/336/165 269/337/165 267/338/165 265/339/165 263/340/165 261/341/165 259/342/165 257/343/165 255/344/165 253/345/165 251/346/165 249/347/165 247/348/165 245/349/165 243/350/165 241/351/165 239/352/165 237/353/165 235/354/165 233/355/165 231/356/165 229/357/165 227/358/165 225/359/165 223/360/165 221/361/165 219/362/165 217/363/165 215/364/165 213/365/165 211/366/165 209/367/165 207/368/165 205/369/165 203/370/165
f 322/306/166 323/305/166 325/371/166 324/372/166
f 324/372/167 325/371/167 199/373/167 198/374/167
f 198/375/168 200/376/168 202/377/168 204/378/168 206/379/168 208/380/168 210/381/168 212/382/168 214/383/168 216/384/168 218/385/168 220/386/168 222/387/168 224/388/168 226/389/168 228/390/168 230/391/168 232/392/168 234/393/168 236/394/168 238/395/168 240/396/168 242/397/168 244/398/168 246/399/168 248/400/168 250/401/168 252/402/168 254/403/168 256/404/168 258/405/168 260/406/168 262/407/168 264/408/168 266/409/168 268/410/168 270/411/168 272/412/168 274/413/168 276/414/168 278/415/168 280/416/168 282/417/168 284/418/168 286/419/168 288/420/168 290/421/168 292/422/168 294/423/168 296/424/168 298/425/168 300/426/168 302/427/168 304/428/168 306/429/168 308/430/168 310/431/168 312/432/168 314/433/168 316/434/168 318/435/168 320/436/168 322/437/168 324/438/168
